<svg viewBox="0 0 98 28" width="98" height="28" xmlns="http://www.w3.org/2000/svg">
      <g>
        <path transform="matrix(1 0 0 1 1.055 1.31)" d="M10.192 0.013C10.180 0.025 10.170 0.150 10.170 0.290C10.170 0.290 10.170 0.544 10.170 0.544C10.170 0.544 8.412 0.541 8.412 0.541C8.412 0.541 8.404 1.018 8.404 1.018C8.404 1.018 7.898 1.051 7.898 1.051C7.898 1.051 7.898 1.532 7.898 1.532C7.898 1.532 6.984 1.532 6.984 1.532C6.984 1.532 6.951 2.046 6.951 2.046C6.951 2.046 6.437 2.038 6.437 2.038C6.437 2.038 6.437 2.560 6.437 2.560C6.437 2.560 6.200 2.560 6.200 2.560C5.936 2.560 5.896 2.607 5.896 2.919C5.896 2.919 5.896 3.108 5.896 3.108C5.896 3.108 5.409 3.035 5.409 3.035C5.409 3.035 5.409 3.588 5.409 3.588C5.409 3.588 4.868 3.588 4.868 3.588C4.868 3.588 4.868 3.926 4.868 3.926C4.868 4.112 4.852 4.355 4.834 4.467C4.800 4.669 4.799 4.670 4.537 4.670C4.537 4.670 4.273 4.670 4.273 4.670C4.273 4.670 4.273 5.806 4.273 5.806C4.273 5.806 3.733 5.806 3.733 5.806C3.733 5.806 3.733 6.779 3.733 6.779C3.733 6.779 3.459 6.779 3.459 6.779C3.293 6.779 3.198 6.800 3.218 6.832C3.236 6.862 3.235 6.972 3.215 7.077C3.184 7.244 3.161 7.266 3.037 7.254C2.907 7.240 2.892 7.258 2.877 7.448C2.861 7.644 2.851 7.655 2.704 7.633C2.556 7.611 2.547 7.621 2.532 7.830C2.532 7.830 2.515 8.051 2.515 8.051C2.515 8.051 2.257 8.067 2.257 8.067C2.096 8.077 2.001 8.108 2.006 8.148C2.011 8.184 2.011 8.304 2.008 8.416C2.008 8.416 2.001 8.619 2.001 8.619C2.001 8.619 1.461 8.619 1.461 8.619C1.461 8.619 1.461 9.646 1.461 9.646C1.461 9.646 0.974 9.646 0.974 9.646C0.974 9.646 0.974 10.674 0.974 10.674C0.974 10.674 0.487 10.674 0.487 10.674C0.487 10.674 0.481 11.147 0.481 11.147C0.477 11.408 0.479 11.773 0.486 11.959C0.486 11.959 0.497 12.297 0.497 12.297C0.497 12.297 0.000 12.297 0.000 12.297C0.000 12.297 0.000 13.676 0.000 13.676C0.000 14.951 0.007 15.056 0.095 15.063C0.147 15.066 0.372 15.077 0.595 15.086C0.818 15.094 1.031 15.103 1.068 15.106C1.111 15.108 1.136 15.191 1.136 15.326C1.136 15.493 1.158 15.544 1.231 15.550C1.283 15.554 1.374 15.562 1.434 15.568C1.493 15.574 1.682 15.582 1.853 15.587C1.853 15.587 2.164 15.597 2.164 15.597C2.164 15.597 2.164 16.084 2.164 16.084C2.164 16.084 2.421 16.089 2.421 16.089C2.562 16.091 2.785 16.089 2.915 16.084C3.183 16.073 3.244 16.130 3.245 16.395C3.245 16.395 3.246 16.570 3.246 16.570C3.246 16.570 3.949 16.570 3.949 16.570C3.949 16.570 3.949 16.978 3.949 16.978C3.949 17.368 3.944 17.385 3.827 17.375C3.456 17.344 3.462 17.335 3.462 17.886C3.462 17.886 3.462 18.391 3.462 18.391C3.462 18.391 3.002 18.383 3.002 18.383C3.002 18.383 2.974 21.655 2.974 21.655C2.974 21.655 3.096 21.664 3.096 21.664C3.163 21.668 3.273 21.667 3.340 21.662C3.450 21.652 3.463 21.676 3.468 21.910C3.472 22.053 3.480 22.194 3.487 22.223C3.494 22.253 3.503 22.344 3.508 22.426C3.515 22.562 3.535 22.575 3.729 22.575C3.942 22.575 3.943 22.576 3.959 22.805C3.976 23.034 3.977 23.035 4.219 23.062C4.462 23.089 4.463 23.089 4.479 23.319C4.479 23.319 4.496 23.549 4.496 23.549C4.496 23.549 5.409 23.549 5.409 23.549C5.409 23.549 5.409 23.981 5.409 23.981C5.409 23.981 5.842 23.981 5.842 23.981C5.842 23.981 5.842 24.414 5.842 24.414C5.842 24.414 6.978 24.414 6.978 24.414C6.978 24.414 6.978 24.901 6.978 24.901C6.978 24.901 8.980 24.901 8.980 24.901C8.980 24.901 8.980 25.388 8.980 25.388C8.980 25.388 10.616 25.390 10.616 25.390C11.516 25.391 13.318 25.406 14.621 25.423C14.621 25.423 16.990 25.455 16.990 25.455C16.990 25.455 16.977 25.259 16.977 25.259C16.969 25.152 16.989 25.038 17.020 25.007C17.054 24.973 17.391 24.951 17.869 24.952C17.869 24.952 18.663 24.952 18.663 24.952C18.663 24.952 18.663 24.522 18.663 24.522C18.663 24.522 19.055 24.518 19.055 24.518C19.270 24.516 19.636 24.518 19.866 24.522C19.866 24.522 20.285 24.529 20.285 24.529C20.285 24.529 20.285 24.309 20.285 24.309C20.285 24.150 20.308 24.090 20.367 24.090C20.411 24.090 20.448 24.065 20.448 24.035C20.448 24.006 20.473 23.981 20.505 23.981C20.536 23.981 20.547 24.006 20.529 24.035C20.508 24.070 20.664 24.090 20.958 24.090C20.958 24.090 21.421 24.090 21.421 24.090C21.421 24.090 21.421 23.846 21.421 23.846C21.421 23.672 21.443 23.603 21.498 23.603C21.540 23.603 21.587 23.572 21.602 23.535C21.624 23.481 21.630 23.481 21.633 23.535C21.637 23.583 21.763 23.603 22.071 23.603C22.071 23.603 22.503 23.603 22.503 23.603C22.503 23.603 22.503 23.359 22.503 23.359C22.503 23.118 22.505 23.116 22.693 23.109C22.797 23.105 22.912 23.099 22.950 23.096C22.988 23.092 23.029 22.984 23.044 22.845C23.074 22.573 22.999 22.601 23.758 22.581C23.758 22.581 24.012 22.575 24.012 22.575C24.012 22.575 24.028 22.345 24.028 22.345C24.045 22.117 24.047 22.115 24.272 22.099C24.497 22.082 24.499 22.080 24.515 21.855C24.532 21.630 24.533 21.628 24.762 21.612C24.990 21.595 24.992 21.594 24.992 21.383C24.992 21.196 25.010 21.166 25.140 21.134C25.222 21.114 25.307 21.071 25.329 21.038C25.356 20.998 25.369 21.000 25.369 21.047C25.370 21.084 25.395 21.114 25.424 21.114C25.454 21.114 25.478 21.043 25.478 20.956C25.478 20.684 25.526 20.627 25.755 20.627C25.755 20.627 25.965 20.627 25.965 20.627C25.965 20.627 25.968 20.398 25.968 20.398C25.969 20.271 25.975 19.784 25.981 19.315C25.994 18.366 26.015 18.416 25.600 18.431C25.370 18.440 25.299 18.394 25.451 18.336C25.507 18.315 25.533 18.228 25.533 18.061C25.533 17.854 25.518 17.822 25.438 17.847C25.348 17.875 25.348 17.874 25.438 17.816C25.544 17.748 25.573 17.382 25.472 17.382C25.428 17.382 25.429 17.360 25.475 17.305C25.510 17.262 25.532 17.123 25.522 16.995C25.506 16.764 25.504 16.763 25.276 16.744C25.129 16.732 25.046 16.747 25.046 16.786C25.046 16.820 25.020 16.831 24.989 16.812C24.952 16.789 24.951 16.755 24.985 16.714C25.013 16.679 25.039 16.341 25.042 15.962C25.042 15.962 25.047 15.272 25.047 15.272C25.047 15.272 24.746 15.272 24.746 15.272C24.522 15.272 24.455 15.255 24.485 15.206C24.508 15.169 24.528 13.818 24.530 12.204C24.530 12.204 24.534 9.268 24.534 9.268C24.534 9.268 24.316 9.267 24.316 9.267C24.081 9.266 23.914 9.196 24.009 9.138C24.045 9.116 24.060 8.791 24.051 8.225C24.051 8.225 24.036 7.347 24.036 7.347C24.036 7.347 23.531 7.314 23.531 7.314C23.531 7.314 23.531 5.806 23.531 5.806C23.531 5.806 23.044 5.806 23.044 5.806C23.044 5.806 23.044 5.265 23.044 5.265C23.044 5.265 22.516 5.265 22.516 5.265C22.516 5.265 22.523 4.683 22.523 4.683C22.529 4.201 22.516 4.101 22.449 4.096C22.405 4.093 22.289 4.087 22.192 4.083C22.021 4.075 22.016 4.068 22.016 3.831C22.016 3.831 22.016 3.588 22.016 3.588C22.016 3.588 21.530 3.588 21.530 3.588C21.530 3.588 21.530 3.344 21.530 3.344C21.530 3.116 21.520 3.101 21.381 3.095C21.299 3.091 21.189 3.093 21.137 3.098C21.060 3.106 21.043 3.064 21.043 2.864C21.043 2.864 21.043 2.620 21.043 2.620C21.043 2.620 20.583 2.587 20.583 2.587C20.583 2.587 20.550 2.073 20.550 2.073C20.550 2.073 20.069 2.073 20.069 2.073C20.069 2.073 20.069 1.586 20.069 1.586C20.069 1.586 18.987 1.586 18.987 1.586C18.987 1.586 18.987 1.051 18.987 1.051C18.987 1.051 17.851 1.072 17.851 1.072C17.851 1.072 17.851 0.558 17.851 0.558C17.851 0.558 16.607 0.558 16.607 0.558C16.607 0.558 16.597 0.410 16.597 0.410C16.592 0.328 16.590 0.206 16.594 0.139C16.600 0.020 16.587 0.018 16.022 0.017C15.704 0.017 14.267 0.011 12.829 0.003C11.391 -0.004 10.205 0.001 10.192 0.013ZM8.655 0.721C8.655 0.750 8.644 0.775 8.631 0.775C8.618 0.775 8.592 0.750 8.574 0.721C8.556 0.691 8.566 0.667 8.598 0.667C8.629 0.667 8.655 0.691 8.655 0.721ZM14.416 0.721C14.435 0.750 14.424 0.775 14.392 0.775C14.361 0.775 14.335 0.750 14.335 0.721C14.335 0.691 14.346 0.667 14.359 0.667C14.372 0.667 14.398 0.691 14.416 0.721ZM11.955 1.262C11.955 1.291 11.944 1.316 11.931 1.316C11.918 1.316 11.892 1.291 11.874 1.262C11.855 1.232 11.866 1.208 11.898 1.208C11.929 1.208 11.955 1.232 11.955 1.262ZM12.496 1.262C12.496 1.291 12.471 1.316 12.442 1.316C12.412 1.316 12.388 1.291 12.388 1.262C12.388 1.232 12.412 1.208 12.442 1.208C12.471 1.208 12.496 1.232 12.496 1.262ZM14.443 1.231C14.443 1.245 14.419 1.270 14.389 1.289C14.359 1.307 14.335 1.296 14.335 1.265C14.335 1.233 14.359 1.208 14.389 1.208C14.419 1.208 14.443 1.218 14.443 1.231ZM14.984 1.262C14.984 1.291 14.973 1.316 14.960 1.316C14.947 1.316 14.921 1.291 14.903 1.262C14.885 1.232 14.895 1.208 14.927 1.208C14.958 1.208 14.984 1.232 14.984 1.262ZM18.608 1.262C18.608 1.291 18.584 1.316 18.554 1.316C18.525 1.316 18.500 1.291 18.500 1.262C18.500 1.232 18.525 1.208 18.554 1.208C18.584 1.208 18.608 1.232 18.608 1.262ZM12.847 1.694C12.866 1.724 12.855 1.749 12.824 1.749C12.792 1.749 12.766 1.724 12.766 1.694C12.766 1.665 12.777 1.640 12.790 1.640C12.803 1.640 12.829 1.665 12.847 1.694ZM13.902 1.749C13.902 1.778 13.892 1.803 13.878 1.803C13.865 1.803 13.840 1.778 13.821 1.749C13.803 1.719 13.813 1.694 13.845 1.694C13.876 1.694 13.902 1.719 13.902 1.749ZM14.416 1.749C14.435 1.778 14.424 1.803 14.392 1.803C14.361 1.803 14.335 1.778 14.335 1.749C14.335 1.719 14.346 1.694 14.359 1.694C14.372 1.694 14.398 1.719 14.416 1.749ZM18.068 1.749C18.068 1.778 18.043 1.803 18.013 1.803C17.984 1.803 17.959 1.778 17.959 1.749C17.959 1.719 17.984 1.694 18.013 1.694C18.043 1.694 18.068 1.719 18.068 1.749ZM19.149 1.749C19.149 1.778 19.125 1.803 19.095 1.803C19.066 1.803 19.041 1.778 19.041 1.749C19.041 1.719 19.066 1.694 19.095 1.694C19.125 1.694 19.149 1.719 19.149 1.749ZM19.690 1.749C19.690 1.778 19.666 1.803 19.636 1.803C19.607 1.803 19.582 1.778 19.582 1.749C19.582 1.719 19.607 1.694 19.636 1.694C19.666 1.694 19.690 1.719 19.690 1.749ZM12.496 1.803C12.496 1.832 12.485 1.857 12.472 1.857C12.459 1.857 12.433 1.832 12.415 1.803C12.396 1.773 12.407 1.749 12.439 1.749C12.470 1.749 12.496 1.773 12.496 1.803ZM9.818 2.235C9.837 2.265 9.826 2.289 9.794 2.289C9.763 2.289 9.737 2.265 9.737 2.235C9.737 2.206 9.748 2.181 9.761 2.181C9.774 2.181 9.800 2.206 9.818 2.235ZM10.359 2.235C10.377 2.265 10.367 2.289 10.335 2.289C10.304 2.289 10.278 2.265 10.278 2.235C10.278 2.206 10.289 2.181 10.302 2.181C10.315 2.181 10.341 2.206 10.359 2.235ZM6.600 2.722C6.600 2.752 6.575 2.776 6.545 2.776C6.516 2.776 6.491 2.752 6.491 2.722C6.491 2.692 6.516 2.668 6.545 2.668C6.575 2.668 6.600 2.692 6.600 2.722ZM18.608 2.776C18.608 2.806 18.598 2.830 18.585 2.830C18.571 2.830 18.546 2.806 18.527 2.776C18.509 2.747 18.520 2.722 18.551 2.722C18.583 2.722 18.608 2.747 18.608 2.776ZM19.149 2.746C19.149 2.759 19.125 2.785 19.095 2.803C19.066 2.822 19.041 2.811 19.041 2.780C19.041 2.748 19.066 2.722 19.095 2.722C19.125 2.722 19.149 2.733 19.149 2.746ZM19.690 2.776C19.690 2.806 19.666 2.830 19.636 2.830C19.607 2.830 19.582 2.806 19.582 2.776C19.582 2.747 19.607 2.722 19.636 2.722C19.666 2.722 19.690 2.747 19.690 2.776ZM20.340 2.993C20.340 3.022 20.315 3.047 20.285 3.047C20.256 3.047 20.231 3.022 20.231 2.993C20.231 2.963 20.256 2.939 20.285 2.939C20.315 2.939 20.340 2.963 20.340 2.993ZM16.341 3.032C16.423 3.054 16.445 3.108 16.445 3.297C16.445 3.297 16.445 3.534 16.445 3.534C16.445 3.534 17.527 3.534 17.527 3.534C17.527 3.534 17.527 4.020 17.527 4.020C17.527 4.020 17.797 4.020 17.797 4.020C18.001 4.020 18.068 4.040 18.068 4.102C18.068 4.158 18.125 4.183 18.257 4.183C18.445 4.183 18.446 4.184 18.446 4.426C18.446 4.426 18.446 4.670 18.446 4.670C18.446 4.670 18.987 4.670 18.987 4.670C18.987 4.670 18.987 5.153 18.987 5.153C18.987 5.153 19.528 5.225 19.528 5.225C19.528 5.225 19.528 6.238 19.528 6.238C19.528 6.238 20.069 6.238 20.069 6.238C20.069 6.238 20.069 6.725 20.069 6.725C20.069 6.725 20.556 6.725 20.556 6.725C20.556 6.725 20.556 7.212 20.556 7.212C20.556 7.212 21.043 7.212 21.043 7.212C21.043 7.212 21.043 7.699 21.043 7.699C21.043 7.699 21.530 7.699 21.530 7.699C21.530 7.699 21.530 8.132 21.530 8.132C21.530 8.132 22.016 8.132 22.016 8.132C22.016 8.132 22.016 8.348 22.016 8.348C22.016 8.574 22.012 8.571 22.341 8.586C22.341 8.586 22.476 8.591 22.476 8.591C22.476 8.591 22.507 9.917 22.507 9.917C22.507 9.917 22.016 9.917 22.016 9.917C22.016 9.917 22.016 10.208 22.016 10.208C22.016 10.367 22.001 10.574 21.983 10.667C21.951 10.824 21.932 10.836 21.726 10.837C21.726 10.837 21.503 10.837 21.503 10.837C21.503 10.837 21.494 11.148 21.494 11.148C21.489 11.319 21.483 11.623 21.480 11.824C21.480 11.824 21.475 12.189 21.475 12.189C21.475 12.189 20.995 12.189 20.995 12.189C20.995 12.189 20.962 12.703 20.962 12.703C20.962 12.703 20.570 12.669 20.570 12.669C20.570 12.669 20.494 13.541 20.494 13.541C20.494 13.541 20.255 13.541 20.255 13.541C20.024 13.541 20.015 13.547 20.015 13.704C20.015 13.864 20.011 13.866 19.799 13.832C19.598 13.800 19.582 13.807 19.574 13.926C19.569 13.997 19.560 14.079 19.553 14.109C19.546 14.139 19.538 14.194 19.534 14.231C19.530 14.274 19.440 14.298 19.285 14.298C19.285 14.298 19.041 14.298 19.041 14.298C19.041 14.298 19.041 14.785 19.041 14.785C19.041 14.785 18.500 14.785 18.500 14.785C18.500 14.785 18.500 15.218 18.500 15.218C18.500 15.218 17.905 15.218 17.905 15.218C17.905 15.218 17.905 15.462 17.905 15.462C17.905 15.694 17.898 15.706 17.756 15.702C17.675 15.699 17.431 15.714 17.216 15.736C17.216 15.736 16.823 15.775 16.823 15.775C16.823 15.775 16.823 16.192 16.823 16.192C16.823 16.192 16.539 16.196 16.539 16.196C16.383 16.198 16.044 16.200 15.785 16.199C15.785 16.199 15.314 16.198 15.314 16.198C15.314 16.198 15.282 16.689 15.282 16.689C15.282 16.689 13.848 16.680 13.848 16.680C13.060 16.675 12.281 16.665 12.117 16.658C12.117 16.658 11.820 16.644 11.820 16.644C11.820 16.644 11.786 16.192 11.786 16.192C11.786 16.192 10.657 16.192 10.657 16.192C10.657 16.192 10.657 15.975 10.657 15.975C10.657 15.749 10.634 15.734 10.346 15.757C10.225 15.767 10.224 15.761 10.224 15.033C10.224 15.033 10.224 14.298 10.224 14.298C10.224 14.298 9.732 14.298 9.732 14.298C9.732 14.298 9.764 13.514 9.764 13.514C9.764 13.514 10.405 13.504 10.405 13.504C10.758 13.499 11.061 13.479 11.080 13.461C11.098 13.442 11.114 13.374 11.115 13.308C11.116 13.227 11.155 13.184 11.238 13.172C11.337 13.158 11.360 13.121 11.360 12.969C11.360 12.790 11.367 12.784 11.569 12.784C11.761 12.784 11.782 12.769 11.813 12.615C11.831 12.522 11.847 12.157 11.847 11.803C11.847 11.104 11.857 11.124 11.516 11.157C11.421 11.166 11.339 10.899 11.393 10.759C11.416 10.698 11.364 10.677 11.164 10.664C10.939 10.649 10.900 10.629 10.870 10.512C10.851 10.437 10.860 10.346 10.888 10.309C10.929 10.256 10.812 10.241 10.339 10.241C10.339 10.241 9.737 10.241 9.737 10.241C9.737 10.241 9.737 10.674 9.737 10.674C9.737 10.674 9.190 10.674 9.190 10.674C9.190 10.674 9.203 8.984 9.203 8.984C9.210 8.054 9.226 7.156 9.238 6.988C9.238 6.988 9.260 6.682 9.260 6.682C9.260 6.682 9.737 6.610 9.737 6.610C9.737 6.610 9.737 5.643 9.737 5.643C9.737 5.643 10.224 5.643 10.224 5.643C10.224 5.643 10.224 5.400 10.224 5.400C10.224 5.171 10.232 5.156 10.373 5.156C10.705 5.154 10.765 5.108 10.765 4.853C10.765 4.625 10.771 4.616 10.927 4.616C11.020 4.616 11.090 4.587 11.090 4.548C11.091 4.502 11.107 4.506 11.141 4.560C11.169 4.604 11.205 4.626 11.221 4.610C11.249 4.582 11.295 4.308 11.302 4.118C11.305 4.046 11.367 4.023 11.590 4.010C11.590 4.010 11.874 3.993 11.874 3.993C11.874 3.993 11.907 3.534 11.907 3.534C11.907 3.534 12.377 3.527 12.377 3.527C12.636 3.524 12.876 3.524 12.910 3.528C12.945 3.533 12.990 3.432 13.011 3.305C13.032 3.178 13.059 3.057 13.072 3.036C13.097 2.993 16.179 2.990 16.341 3.032ZM6.032 3.209C6.050 3.239 6.039 3.263 6.008 3.263C5.976 3.263 5.950 3.239 5.950 3.209C5.950 3.179 5.961 3.155 5.974 3.155C5.987 3.155 6.013 3.179 6.032 3.209ZM6.572 3.209C6.591 3.239 6.580 3.263 6.549 3.263C6.517 3.263 6.491 3.239 6.491 3.209C6.491 3.179 6.502 3.155 6.515 3.155C6.528 3.155 6.554 3.179 6.572 3.209ZM19.420 3.534C19.420 3.563 19.394 3.588 19.363 3.588C19.331 3.588 19.320 3.563 19.339 3.534C19.357 3.504 19.383 3.480 19.396 3.480C19.409 3.480 19.420 3.504 19.420 3.534ZM5.518 3.750C5.518 3.780 5.493 3.804 5.464 3.804C5.434 3.804 5.409 3.780 5.409 3.750C5.409 3.720 5.434 3.696 5.464 3.696C5.493 3.696 5.518 3.720 5.518 3.750ZM7.627 3.720C7.627 3.733 7.603 3.759 7.573 3.777C7.543 3.795 7.519 3.785 7.519 3.753C7.519 3.722 7.543 3.696 7.573 3.696C7.603 3.696 7.627 3.707 7.627 3.720ZM21.097 3.750C21.097 3.780 21.071 3.804 21.040 3.804C21.008 3.804 20.997 3.780 21.016 3.750C21.034 3.720 21.060 3.696 21.073 3.696C21.086 3.696 21.097 3.720 21.097 3.750ZM6.425 4.581C6.425 4.581 6.410 5.184 6.410 5.184C6.410 5.184 5.896 5.217 5.896 5.217C5.896 5.217 5.896 5.697 5.896 5.697C5.896 5.697 5.139 5.697 5.139 5.697C5.139 5.697 5.139 5.394 5.139 5.394C5.139 5.116 5.148 5.092 5.247 5.118C5.334 5.141 5.357 5.119 5.362 5.003C5.365 4.924 5.373 4.835 5.380 4.805C5.387 4.775 5.397 4.720 5.401 4.683C5.406 4.642 5.493 4.616 5.626 4.616C5.626 4.616 5.842 4.616 5.842 4.616C5.842 4.616 5.842 4.020 5.842 4.020C5.842 4.020 6.028 4.020 6.028 4.020C6.131 4.020 6.229 3.997 6.246 3.969C6.264 3.940 6.315 3.931 6.360 3.948C6.426 3.974 6.438 4.086 6.425 4.581ZM22.179 4.315C22.179 4.328 22.154 4.354 22.125 4.372C22.095 4.391 22.071 4.380 22.071 4.348C22.071 4.317 22.095 4.291 22.125 4.291C22.154 4.291 22.179 4.302 22.179 4.315ZM22.449 4.616C22.449 4.645 22.425 4.670 22.395 4.670C22.365 4.670 22.341 4.645 22.341 4.616C22.341 4.586 22.365 4.561 22.395 4.561C22.425 4.561 22.449 4.586 22.449 4.616ZM14.281 4.961C14.281 4.961 14.281 5.211 14.281 5.211C14.281 5.211 13.740 5.211 13.740 5.211C13.740 5.211 13.735 5.468 13.735 5.468C13.733 5.609 13.731 5.840 13.731 5.981C13.731 5.981 13.731 6.238 13.731 6.238C13.731 6.238 13.210 6.238 13.210 6.238C13.210 6.238 13.185 6.468 13.185 6.468C13.172 6.595 13.156 7.447 13.151 8.361C13.142 9.928 13.147 10.024 13.238 10.016C13.291 10.012 13.417 10.012 13.517 10.016C13.517 10.016 13.700 10.025 13.700 10.025C13.700 10.025 13.645 10.512 13.645 10.512C13.645 10.512 14.281 10.512 14.281 10.512C14.281 10.512 14.281 10.025 14.281 10.025C14.281 10.025 15.363 10.025 15.363 10.025C15.363 10.025 15.363 9.538 15.363 9.538C15.363 9.538 16.445 9.538 16.445 9.538C16.445 9.538 16.445 9.054 16.445 9.054C16.445 9.054 18.081 9.057 18.081 9.057C18.981 9.059 19.797 9.059 19.893 9.056C20.057 9.052 20.069 9.038 20.069 8.864C20.069 8.864 20.069 8.677 20.069 8.677C20.069 8.677 19.068 8.646 19.068 8.646C19.068 8.646 19.035 8.240 19.035 8.240C19.035 8.240 18.267 8.233 18.267 8.233C17.404 8.226 16.668 8.227 16.566 8.235C16.529 8.237 16.499 8.276 16.499 8.321C16.499 8.383 16.430 8.402 16.201 8.402C16.201 8.402 15.904 8.402 15.904 8.402C15.904 8.402 15.904 7.564 15.904 7.564C15.904 7.103 15.886 6.728 15.863 6.732C15.841 6.735 15.719 6.735 15.593 6.732C15.593 6.732 15.363 6.725 15.363 6.725C15.363 6.725 15.363 6.248 15.363 6.248C15.363 6.248 15.160 6.248 15.160 6.248C15.048 6.249 14.926 6.247 14.889 6.244C14.836 6.240 14.825 6.072 14.844 5.508C14.844 5.508 14.868 4.778 14.868 4.778C14.868 4.778 14.660 4.778 14.660 4.778C14.546 4.778 14.414 4.763 14.367 4.745C14.296 4.718 14.281 4.756 14.281 4.961ZM4.977 4.832C4.977 4.862 4.951 4.886 4.919 4.886C4.888 4.886 4.877 4.862 4.896 4.832C4.914 4.802 4.940 4.778 4.953 4.778C4.966 4.778 4.977 4.802 4.977 4.832ZM22.179 4.856C22.179 4.869 22.154 4.895 22.125 4.913C22.095 4.931 22.071 4.921 22.071 4.889C22.071 4.858 22.095 4.832 22.125 4.832C22.154 4.832 22.179 4.843 22.179 4.856ZM14.714 5.156C14.714 5.186 14.689 5.211 14.660 5.211C14.630 5.211 14.605 5.186 14.605 5.156C14.605 5.127 14.630 5.102 14.660 5.102C14.689 5.102 14.714 5.127 14.714 5.156ZM22.449 5.156C22.449 5.186 22.423 5.211 22.392 5.211C22.360 5.211 22.350 5.186 22.368 5.156C22.386 5.127 22.412 5.102 22.425 5.102C22.438 5.102 22.449 5.127 22.449 5.156ZM8.637 8.443C8.619 10.250 8.603 11.732 8.602 11.736C8.602 11.740 8.478 11.744 8.329 11.744C8.329 11.744 8.056 11.744 8.056 11.744C8.056 11.744 8.060 8.977 8.060 8.977C8.063 7.456 8.064 6.169 8.062 6.117C8.061 6.039 8.010 6.022 7.790 6.022C7.499 6.022 7.489 6.035 7.515 6.366C7.522 6.452 7.513 6.579 7.495 6.650C7.467 6.761 7.430 6.779 7.228 6.779C7.228 6.779 6.993 6.779 6.993 6.779C6.993 6.779 6.959 7.063 6.959 7.063C6.940 7.219 6.925 7.426 6.925 7.523C6.924 7.695 6.919 7.699 6.681 7.699C6.681 7.699 6.437 7.699 6.437 7.699C6.437 7.699 6.432 7.929 6.432 7.929C6.428 8.055 6.420 8.195 6.414 8.240C6.407 8.284 6.397 8.396 6.392 8.488C6.384 8.647 6.373 8.654 6.153 8.650C6.153 8.650 5.923 8.646 5.923 8.646C5.923 8.646 5.908 9.366 5.908 9.366C5.893 10.073 5.891 10.086 5.773 10.077C5.707 10.071 5.598 10.070 5.531 10.073C5.531 10.073 5.409 10.079 5.409 10.079C5.409 10.079 5.409 12.987 5.409 12.987C5.409 12.987 5.255 13.017 5.255 13.017C5.170 13.034 5.045 13.034 4.976 13.016C4.976 13.016 4.852 12.983 4.852 12.983C4.852 12.983 4.885 11.146 4.885 11.146C4.903 10.136 4.929 9.297 4.943 9.283C4.958 9.269 5.062 9.253 5.176 9.249C5.342 9.242 5.383 9.219 5.388 9.132C5.391 9.073 5.397 8.813 5.401 8.554C5.401 8.554 5.409 8.084 5.409 8.084C5.409 8.084 5.869 8.051 5.869 8.051C5.869 8.051 5.884 7.618 5.884 7.618C5.899 7.141 5.947 7.063 6.210 7.081C6.363 7.092 6.371 7.081 6.403 6.814C6.421 6.661 6.437 6.457 6.437 6.360C6.437 6.197 6.451 6.184 6.627 6.178C6.731 6.174 6.846 6.168 6.884 6.164C6.925 6.160 6.958 6.056 6.968 5.900C6.968 5.900 6.984 5.643 6.984 5.643C6.984 5.643 7.465 5.643 7.465 5.643C7.465 5.643 7.465 5.436 7.465 5.436C7.465 5.322 7.481 5.212 7.501 5.193C7.521 5.173 7.792 5.156 8.104 5.156C8.104 5.156 8.671 5.156 8.671 5.156C8.671 5.156 8.637 8.443 8.637 8.443ZM14.416 5.373C14.435 5.403 14.424 5.427 14.392 5.427C14.361 5.427 14.335 5.403 14.335 5.373C14.335 5.343 14.346 5.319 14.359 5.319C14.372 5.319 14.398 5.343 14.416 5.373ZM21.097 5.427C21.097 5.457 21.086 5.481 21.073 5.481C21.060 5.481 21.034 5.457 21.016 5.427C20.997 5.397 21.008 5.373 21.040 5.373C21.071 5.373 21.097 5.397 21.097 5.427ZM22.179 5.397C22.179 5.410 22.154 5.436 22.125 5.454C22.095 5.472 22.071 5.462 22.071 5.430C22.071 5.399 22.095 5.373 22.125 5.373C22.154 5.373 22.179 5.384 22.179 5.397ZM4.760 5.643C4.760 5.673 4.735 5.697 4.703 5.697C4.672 5.697 4.661 5.673 4.679 5.643C4.698 5.614 4.723 5.589 4.736 5.589C4.750 5.589 4.760 5.614 4.760 5.643ZM22.990 5.697C22.990 5.727 22.979 5.752 22.966 5.752C22.953 5.752 22.927 5.727 22.909 5.697C22.891 5.668 22.901 5.643 22.933 5.643C22.964 5.643 22.990 5.668 22.990 5.697ZM4.436 5.914C4.436 5.944 4.425 5.968 4.412 5.968C4.399 5.968 4.373 5.944 4.355 5.914C4.336 5.884 4.347 5.860 4.378 5.860C4.410 5.860 4.436 5.884 4.436 5.914ZM22.693 5.914C22.711 5.944 22.700 5.968 22.669 5.968C22.637 5.968 22.611 5.944 22.611 5.914C22.611 5.884 22.622 5.860 22.635 5.860C22.648 5.860 22.674 5.884 22.693 5.914ZM22.422 6.184C22.441 6.214 22.430 6.238 22.398 6.238C22.367 6.238 22.341 6.214 22.341 6.184C22.341 6.155 22.352 6.130 22.365 6.130C22.378 6.130 22.404 6.155 22.422 6.184ZM4.977 6.370C4.977 6.384 4.952 6.409 4.923 6.428C4.893 6.446 4.868 6.435 4.868 6.404C4.868 6.372 4.893 6.347 4.923 6.347C4.952 6.347 4.977 6.357 4.977 6.370ZM5.409 6.820C5.409 6.931 5.393 7.114 5.375 7.226C5.347 7.393 5.319 7.428 5.213 7.428C5.134 7.428 5.085 7.460 5.085 7.511C5.085 7.557 5.038 7.612 4.980 7.633C4.922 7.654 4.873 7.690 4.872 7.712C4.870 7.735 4.868 7.899 4.868 8.078C4.868 8.078 4.868 8.402 4.868 8.402C4.868 8.402 4.439 8.402 4.439 8.402C4.439 8.402 4.409 10.052 4.409 10.052C4.409 10.052 3.944 10.086 3.944 10.086C3.944 10.086 3.960 11.727 3.960 11.727C3.969 12.630 3.960 13.343 3.941 13.312C3.921 13.279 3.639 13.247 3.278 13.237C3.278 13.237 2.651 13.219 2.651 13.219C2.651 13.219 2.651 13.374 2.651 13.374C2.651 13.563 2.631 13.569 2.067 13.569C1.655 13.568 1.616 13.578 1.590 13.683C1.574 13.746 1.569 13.843 1.578 13.899C1.594 13.988 1.555 14.003 1.282 14.016C1.282 14.016 0.968 14.032 0.968 14.032C0.968 14.032 1.001 12.162 1.001 12.162C1.001 12.162 1.515 12.129 1.515 12.129C1.515 12.129 1.515 10.620 1.515 10.620C1.515 10.620 2.001 10.620 2.001 10.620C2.001 10.620 2.001 10.377 2.001 10.377C2.001 10.218 1.978 10.133 1.934 10.132C1.883 10.132 1.884 10.120 1.938 10.086C1.977 10.061 2.023 9.940 2.040 9.816C2.069 9.602 2.078 9.592 2.266 9.586C2.373 9.582 2.480 9.582 2.502 9.586C2.524 9.589 2.542 9.387 2.542 9.137C2.542 8.538 2.556 8.510 2.842 8.510C3.074 8.510 3.077 8.508 3.094 8.307C3.110 8.111 3.117 8.104 3.340 8.088C3.580 8.071 3.592 8.054 3.573 7.751C3.565 7.622 3.578 7.616 3.788 7.636C4.056 7.661 4.102 7.624 4.119 7.370C4.130 7.202 4.148 7.180 4.254 7.200C4.365 7.221 4.377 7.200 4.392 6.961C4.392 6.961 4.409 6.698 4.409 6.698C4.409 6.698 4.679 6.666 4.679 6.666C4.828 6.648 5.053 6.630 5.180 6.626C5.180 6.626 5.409 6.617 5.409 6.617C5.409 6.617 5.409 6.820 5.409 6.820ZM15.320 6.760C15.344 6.774 15.357 7.022 15.348 7.310C15.348 7.310 15.332 7.834 15.332 7.834C15.332 7.834 15.117 7.826 15.117 7.826C15.000 7.822 14.765 7.816 14.596 7.813C14.596 7.813 14.290 7.807 14.290 7.807C14.290 7.807 14.308 7.280 14.308 7.280C14.319 6.990 14.329 6.731 14.331 6.704C14.335 6.657 15.235 6.707 15.320 6.760ZM6.059 6.888C6.059 6.917 6.034 6.942 6.004 6.942C5.975 6.942 5.950 6.917 5.950 6.888C5.950 6.858 5.975 6.833 6.004 6.833C6.034 6.833 6.059 6.858 6.059 6.888ZM7.654 6.888C7.673 6.917 7.662 6.942 7.631 6.942C7.599 6.942 7.573 6.917 7.573 6.888C7.573 6.858 7.584 6.833 7.597 6.833C7.610 6.833 7.636 6.858 7.654 6.888ZM22.152 6.942C22.170 6.971 22.159 6.996 22.128 6.996C22.096 6.996 22.071 6.971 22.071 6.942C22.071 6.912 22.081 6.888 22.094 6.888C22.108 6.888 22.133 6.912 22.152 6.942ZM22.125 7.915C22.125 7.945 22.114 7.969 22.101 7.969C22.088 7.969 22.062 7.945 22.043 7.915C22.025 7.886 22.036 7.861 22.067 7.861C22.099 7.861 22.125 7.886 22.125 7.915ZM22.720 7.885C22.720 7.898 22.695 7.924 22.666 7.942C22.636 7.961 22.611 7.950 22.611 7.918C22.611 7.887 22.636 7.861 22.666 7.861C22.695 7.861 22.720 7.872 22.720 7.885ZM23.774 7.915C23.793 7.945 23.782 7.969 23.751 7.969C23.719 7.969 23.693 7.945 23.693 7.915C23.693 7.886 23.704 7.861 23.717 7.861C23.730 7.861 23.756 7.886 23.774 7.915ZM20.664 7.969C20.664 7.999 20.688 8.023 20.718 8.023C20.748 8.023 20.772 7.999 20.772 7.969C20.772 7.940 20.748 7.915 20.718 7.915C20.688 7.915 20.664 7.940 20.664 7.969ZM21.151 7.969C21.151 7.999 21.175 8.023 21.205 8.023C21.235 8.023 21.259 7.999 21.259 7.969C21.259 7.940 21.235 7.915 21.205 7.915C21.175 7.915 21.151 7.940 21.151 7.969ZM2.759 8.294C2.759 8.324 2.721 8.348 2.674 8.348C2.628 8.348 2.605 8.324 2.624 8.294C2.642 8.264 2.680 8.240 2.708 8.240C2.736 8.240 2.759 8.264 2.759 8.294ZM22.690 8.344C22.707 8.372 22.697 8.410 22.666 8.429C22.636 8.447 22.611 8.425 22.611 8.378C22.611 8.283 22.644 8.269 22.690 8.344ZM21.124 8.402C21.105 8.432 21.128 8.456 21.175 8.456C21.221 8.456 21.259 8.432 21.259 8.402C21.259 8.372 21.236 8.348 21.208 8.348C21.180 8.348 21.142 8.372 21.124 8.402ZM21.613 8.398C21.573 8.463 21.675 8.527 21.747 8.483C21.807 8.445 21.768 8.348 21.692 8.348C21.666 8.348 21.630 8.371 21.613 8.398ZM23.774 8.402C23.793 8.432 23.782 8.456 23.751 8.456C23.719 8.456 23.693 8.432 23.693 8.402C23.693 8.372 23.704 8.348 23.717 8.348C23.730 8.348 23.756 8.372 23.774 8.402ZM2.188 8.777C2.206 8.805 2.195 8.843 2.165 8.861C2.134 8.880 2.110 8.857 2.110 8.811C2.110 8.716 2.142 8.702 2.188 8.777ZM6.600 8.835C6.600 8.865 6.575 8.889 6.545 8.889C6.516 8.889 6.491 8.865 6.491 8.835C6.491 8.805 6.516 8.781 6.545 8.781C6.575 8.781 6.600 8.805 6.600 8.835ZM21.677 8.813C21.656 8.835 21.638 8.890 21.638 8.936C21.638 8.997 21.654 9.003 21.698 8.959C21.731 8.926 21.749 8.870 21.737 8.836C21.726 8.802 21.699 8.792 21.677 8.813ZM22.133 8.859C22.143 8.908 22.176 8.948 22.206 8.946C22.286 8.942 22.271 8.821 22.187 8.793C22.142 8.777 22.121 8.802 22.133 8.859ZM2.813 8.889C2.813 8.919 2.837 8.943 2.867 8.943C2.897 8.943 2.921 8.919 2.921 8.889C2.921 8.859 2.897 8.835 2.867 8.835C2.837 8.835 2.813 8.859 2.813 8.889ZM21.151 8.889C21.151 8.919 21.175 8.943 21.205 8.943C21.235 8.943 21.259 8.919 21.259 8.889C21.259 8.859 21.235 8.835 21.205 8.835C21.175 8.835 21.151 8.859 21.151 8.889ZM23.531 9.129C23.531 9.142 23.507 9.168 23.477 9.187C23.447 9.205 23.423 9.194 23.423 9.163C23.423 9.131 23.447 9.105 23.477 9.105C23.507 9.105 23.531 9.116 23.531 9.129ZM2.218 9.322C2.218 9.352 2.194 9.376 2.164 9.376C2.134 9.376 2.110 9.352 2.110 9.322C2.110 9.292 2.134 9.268 2.164 9.268C2.194 9.268 2.218 9.292 2.218 9.322ZM6.572 9.322C6.591 9.352 6.580 9.376 6.549 9.376C6.517 9.376 6.491 9.352 6.491 9.322C6.491 9.292 6.502 9.268 6.515 9.268C6.528 9.268 6.554 9.292 6.572 9.322ZM21.620 9.304C21.557 9.366 21.580 9.430 21.665 9.430C21.709 9.430 21.746 9.393 21.746 9.349C21.746 9.264 21.682 9.241 21.620 9.304ZM22.104 9.311C22.062 9.380 22.161 9.502 22.227 9.461C22.314 9.407 22.301 9.268 22.209 9.268C22.166 9.268 22.119 9.287 22.104 9.311ZM21.151 9.376C21.151 9.406 21.175 9.430 21.205 9.430C21.235 9.430 21.259 9.406 21.259 9.376C21.259 9.346 21.235 9.322 21.205 9.322C21.175 9.322 21.151 9.346 21.151 9.376ZM23.207 9.376C23.207 9.406 23.182 9.430 23.152 9.430C23.123 9.430 23.098 9.406 23.098 9.376C23.098 9.346 23.123 9.322 23.152 9.322C23.182 9.322 23.207 9.346 23.207 9.376ZM24.234 9.376C24.234 9.406 24.210 9.430 24.180 9.430C24.150 9.430 24.126 9.406 24.126 9.376C24.126 9.346 24.150 9.322 24.180 9.322C24.210 9.322 24.234 9.346 24.234 9.376ZM22.152 9.755C22.171 9.786 22.209 9.796 22.237 9.779C22.312 9.733 22.298 9.700 22.203 9.700C22.156 9.700 22.134 9.725 22.152 9.755ZM1.677 9.809C1.677 9.838 1.651 9.863 1.620 9.863C1.588 9.863 1.577 9.838 1.596 9.809C1.614 9.779 1.640 9.755 1.653 9.755C1.666 9.755 1.677 9.779 1.677 9.809ZM23.720 9.863C23.739 9.892 23.728 9.917 23.697 9.917C23.665 9.917 23.639 9.892 23.639 9.863C23.639 9.833 23.650 9.809 23.663 9.809C23.676 9.809 23.702 9.833 23.720 9.863ZM2.272 9.917C2.272 9.947 2.308 9.971 2.353 9.971C2.398 9.971 2.434 9.947 2.434 9.917C2.434 9.887 2.398 9.863 2.353 9.863C2.308 9.863 2.272 9.887 2.272 9.917ZM21.131 9.900C21.070 9.961 21.094 10.025 21.178 10.025C21.223 10.025 21.259 10.002 21.259 9.974C21.259 9.906 21.175 9.857 21.131 9.900ZM21.613 9.967C21.573 10.032 21.675 10.096 21.747 10.051C21.807 10.014 21.768 9.917 21.692 9.917C21.666 9.917 21.630 9.939 21.613 9.967ZM22.449 10.103C22.449 10.116 22.425 10.142 22.395 10.160C22.365 10.179 22.341 10.168 22.341 10.136C22.341 10.105 22.365 10.079 22.395 10.079C22.425 10.079 22.449 10.090 22.449 10.103ZM1.677 10.350C1.677 10.379 1.666 10.404 1.653 10.404C1.640 10.404 1.614 10.379 1.596 10.350C1.577 10.320 1.588 10.295 1.620 10.295C1.651 10.295 1.677 10.320 1.677 10.350ZM6.600 10.350C6.600 10.379 6.575 10.404 6.545 10.404C6.516 10.404 6.491 10.379 6.491 10.350C6.491 10.320 6.516 10.295 6.545 10.295C6.575 10.295 6.600 10.320 6.600 10.350ZM20.640 10.399C20.622 10.427 20.631 10.464 20.659 10.482C20.688 10.499 20.725 10.491 20.742 10.462C20.760 10.434 20.751 10.397 20.723 10.379C20.695 10.362 20.657 10.371 20.640 10.399ZM2.272 10.458C2.272 10.487 2.296 10.512 2.326 10.512C2.356 10.512 2.380 10.487 2.380 10.458C2.380 10.428 2.356 10.404 2.326 10.404C2.296 10.404 2.272 10.428 2.272 10.458ZM21.107 10.462C21.118 10.494 21.150 10.520 21.178 10.520C21.206 10.520 21.238 10.494 21.249 10.462C21.259 10.430 21.228 10.404 21.178 10.404C21.128 10.404 21.097 10.430 21.107 10.462ZM21.595 10.466C21.624 10.550 21.745 10.565 21.749 10.485C21.750 10.455 21.711 10.422 21.661 10.412C21.605 10.400 21.580 10.421 21.595 10.466ZM1.461 10.590C1.461 10.603 1.436 10.629 1.406 10.647C1.377 10.665 1.352 10.655 1.352 10.623C1.352 10.592 1.377 10.566 1.406 10.566C1.436 10.566 1.461 10.577 1.461 10.590ZM10.765 10.940C10.765 11.128 10.782 11.156 10.914 11.182C10.995 11.199 11.111 11.207 11.170 11.200C11.268 11.189 11.278 11.217 11.268 11.486C11.263 11.649 11.257 11.972 11.255 12.202C11.255 12.202 11.252 12.622 11.252 12.622C11.252 12.622 11.008 12.622 11.008 12.622C10.766 12.622 10.765 12.623 10.765 12.811C10.765 13.019 10.778 13.014 10.278 13.010C9.703 13.007 9.737 13.019 9.737 12.811C9.737 12.658 9.716 12.622 9.629 12.622C9.538 12.622 9.521 12.585 9.521 12.402C9.521 12.225 9.539 12.184 9.615 12.192C9.667 12.197 9.826 12.198 9.967 12.195C9.967 12.195 10.224 12.189 10.224 12.189C10.224 12.189 10.224 11.706 10.224 11.706C10.224 11.706 9.223 11.675 9.223 11.675C9.223 11.675 9.242 11.458 9.242 11.458C9.252 11.339 9.266 11.237 9.271 11.231C9.277 11.224 9.385 11.212 9.512 11.204C9.734 11.188 9.823 11.095 9.788 10.914C9.755 10.745 9.800 10.728 10.278 10.728C10.278 10.728 10.765 10.728 10.765 10.728C10.765 10.728 10.765 10.940 10.765 10.940ZM1.766 10.874C1.705 10.935 1.729 10.999 1.812 10.999C1.857 10.999 1.893 10.976 1.893 10.948C1.893 10.880 1.809 10.831 1.766 10.874ZM20.642 10.882C20.624 10.912 20.635 10.953 20.667 10.973C20.750 11.025 20.804 10.954 20.734 10.885C20.695 10.846 20.665 10.845 20.642 10.882ZM21.124 10.890C21.080 10.962 21.144 11.063 21.209 11.023C21.274 10.983 21.274 10.836 21.208 10.836C21.180 10.836 21.142 10.861 21.124 10.890ZM23.747 10.890C23.747 10.920 23.723 10.945 23.693 10.945C23.664 10.945 23.639 10.920 23.639 10.890C23.639 10.861 23.664 10.836 23.693 10.836C23.723 10.836 23.747 10.861 23.747 10.890ZM20.637 11.377C20.615 11.412 20.622 11.465 20.652 11.495C20.688 11.531 20.719 11.528 20.745 11.486C20.767 11.451 20.760 11.398 20.730 11.368C20.694 11.332 20.663 11.335 20.637 11.377ZM21.124 11.377C21.084 11.441 21.136 11.540 21.208 11.540C21.236 11.540 21.259 11.491 21.259 11.431C21.259 11.317 21.180 11.286 21.124 11.377ZM23.720 11.377C23.739 11.407 23.728 11.431 23.697 11.431C23.665 11.431 23.639 11.407 23.639 11.377C23.639 11.348 23.650 11.323 23.663 11.323C23.676 11.323 23.702 11.348 23.720 11.377ZM20.155 11.856C20.137 11.886 20.148 11.927 20.180 11.947C20.263 11.998 20.317 11.928 20.247 11.859C20.208 11.820 20.178 11.819 20.155 11.856ZM20.633 11.871C20.574 11.966 20.693 12.040 20.765 11.954C20.815 11.893 20.812 11.870 20.748 11.846C20.704 11.829 20.652 11.840 20.633 11.871ZM21.124 11.864C21.066 11.958 21.152 12.039 21.236 11.969C21.278 11.934 21.299 11.884 21.282 11.858C21.243 11.794 21.165 11.797 21.124 11.864ZM23.720 11.864C23.739 11.894 23.728 11.918 23.697 11.918C23.665 11.918 23.639 11.894 23.639 11.864C23.639 11.834 23.650 11.810 23.663 11.810C23.676 11.810 23.702 11.834 23.720 11.864ZM1.758 11.918C1.740 11.948 1.750 11.972 1.782 11.972C1.813 11.972 1.839 11.948 1.839 11.918C1.839 11.889 1.828 11.864 1.815 11.864C1.802 11.864 1.776 11.889 1.758 11.918ZM0.622 12.351C0.640 12.381 0.630 12.405 0.598 12.405C0.567 12.405 0.541 12.381 0.541 12.351C0.541 12.321 0.552 12.297 0.565 12.297C0.578 12.297 0.604 12.321 0.622 12.351ZM20.158 12.334C20.097 12.395 20.121 12.459 20.204 12.459C20.249 12.459 20.285 12.436 20.285 12.408C20.285 12.340 20.201 12.291 20.158 12.334ZM20.634 12.356C20.578 12.446 20.704 12.549 20.778 12.475C20.841 12.412 20.802 12.297 20.718 12.297C20.692 12.297 20.654 12.323 20.634 12.356ZM1.219 12.401C1.183 12.461 1.268 12.526 1.318 12.476C1.369 12.424 1.360 12.351 1.301 12.351C1.273 12.351 1.237 12.374 1.219 12.401ZM9.142 14.298C9.142 14.298 9.629 14.298 9.629 14.298C9.629 14.298 9.629 16.192 9.629 16.192C9.629 16.192 9.148 16.192 9.148 16.192C9.148 16.192 9.115 16.706 9.115 16.706C9.115 16.706 8.790 16.711 8.790 16.711C8.612 16.713 8.329 16.704 8.161 16.690C8.161 16.690 7.856 16.665 7.856 16.665C7.856 16.665 7.912 16.246 7.912 16.246C7.912 16.246 7.391 16.246 7.391 16.246C6.839 16.246 6.849 16.252 6.868 15.962C6.878 15.820 6.867 15.813 6.634 15.813C6.391 15.813 6.390 15.812 6.373 15.610C6.357 15.413 6.349 15.407 6.126 15.391C6.126 15.391 5.896 15.374 5.896 15.374C5.896 15.374 5.896 14.629 5.896 14.629C5.896 14.629 5.436 14.596 5.436 14.596C5.436 14.596 5.404 14.028 5.404 14.028C5.404 14.028 4.923 14.028 4.923 14.028C4.923 14.028 4.923 13.541 4.923 13.541C4.923 13.541 5.882 13.541 5.882 13.541C5.882 13.541 5.957 14.298 5.957 14.298C5.957 14.298 6.170 14.298 6.170 14.298C6.371 14.298 6.383 14.308 6.383 14.461C6.383 14.587 6.407 14.623 6.491 14.623C6.576 14.623 6.600 14.659 6.600 14.785C6.600 14.934 6.615 14.948 6.783 14.948C6.978 14.948 7.030 15.029 7.032 15.337C7.032 15.472 7.051 15.484 7.289 15.499C7.542 15.515 7.547 15.519 7.573 15.720C7.588 15.833 7.619 15.924 7.641 15.923C7.663 15.922 7.998 15.921 8.385 15.921C8.385 15.921 9.088 15.921 9.088 15.921C9.088 15.921 9.088 14.290 9.088 14.290C9.088 14.290 8.628 14.323 8.628 14.323C8.628 14.323 8.613 13.515 8.613 13.515C8.605 13.071 8.610 12.676 8.625 12.637C8.641 12.594 8.746 12.567 8.897 12.567C8.897 12.567 9.142 12.567 9.142 12.567C9.142 12.567 9.142 14.298 9.142 14.298ZM19.674 12.818C19.631 12.862 19.679 12.946 19.748 12.946C19.776 12.946 19.799 12.910 19.799 12.865C19.799 12.781 19.735 12.757 19.674 12.818ZM20.123 12.865C20.123 12.921 20.159 12.947 20.218 12.936C20.332 12.914 20.325 12.818 20.207 12.793C20.158 12.783 20.123 12.813 20.123 12.865ZM2.272 13.271C2.272 13.300 2.296 13.325 2.326 13.325C2.356 13.325 2.380 13.300 2.380 13.271C2.380 13.241 2.356 13.217 2.326 13.217C2.296 13.217 2.272 13.241 2.272 13.271ZM10.332 13.271C10.332 13.300 10.306 13.325 10.275 13.325C10.243 13.325 10.233 13.300 10.251 13.271C10.269 13.241 10.295 13.217 10.308 13.217C10.321 13.217 10.332 13.241 10.332 13.271ZM10.873 13.271C10.873 13.300 10.847 13.325 10.816 13.325C10.784 13.325 10.773 13.300 10.792 13.271C10.810 13.241 10.836 13.217 10.849 13.217C10.862 13.217 10.873 13.241 10.873 13.271ZM20.147 13.275C20.092 13.366 20.217 13.469 20.292 13.394C20.354 13.332 20.315 13.217 20.231 13.217C20.205 13.217 20.167 13.243 20.147 13.275ZM19.654 13.355C19.606 13.481 19.713 13.563 19.795 13.465C19.864 13.381 19.833 13.271 19.740 13.271C19.711 13.271 19.672 13.309 19.654 13.355ZM23.693 13.379C23.693 13.409 23.669 13.433 23.639 13.433C23.610 13.433 23.585 13.409 23.585 13.379C23.585 13.349 23.610 13.325 23.639 13.325C23.669 13.325 23.693 13.349 23.693 13.379ZM19.179 13.429C19.142 13.489 19.227 13.554 19.277 13.504C19.329 13.452 19.319 13.379 19.261 13.379C19.233 13.379 19.196 13.401 19.179 13.429ZM3.962 13.793C3.925 13.808 3.864 13.808 3.827 13.793C3.790 13.778 3.820 13.766 3.895 13.766C3.969 13.766 4.000 13.778 3.962 13.793ZM22.125 13.812C22.125 13.841 22.100 13.866 22.071 13.866C22.041 13.866 22.016 13.841 22.016 13.812C22.016 13.782 22.041 13.757 22.071 13.757C22.100 13.757 22.125 13.782 22.125 13.812ZM22.666 13.812C22.666 13.841 22.655 13.866 22.642 13.866C22.629 13.866 22.603 13.841 22.584 13.812C22.566 13.782 22.577 13.757 22.608 13.757C22.640 13.757 22.666 13.782 22.666 13.812ZM23.802 13.812C23.802 13.841 23.777 13.866 23.747 13.866C23.718 13.866 23.693 13.841 23.693 13.812C23.693 13.782 23.718 13.757 23.747 13.757C23.777 13.757 23.802 13.782 23.802 13.812ZM4.425 14.150C4.442 14.351 4.444 14.353 4.680 14.353C4.680 14.353 4.917 14.353 4.917 14.353C4.917 14.353 4.992 15.010 4.992 15.010C4.992 15.010 5.436 14.975 5.436 14.975C5.436 14.975 5.452 15.367 5.452 15.367C5.461 15.583 5.492 15.759 5.520 15.759C5.548 15.759 5.572 15.808 5.572 15.867C5.572 15.927 5.598 15.975 5.631 15.975C5.663 15.975 5.703 15.927 5.718 15.867C5.734 15.807 5.792 15.759 5.849 15.759C5.926 15.759 5.950 15.798 5.950 15.921C5.950 16.075 5.962 16.084 6.167 16.084C6.347 16.084 6.383 16.102 6.383 16.192C6.383 16.276 6.347 16.300 6.221 16.300C6.129 16.300 6.057 16.329 6.054 16.368C6.051 16.422 6.045 16.422 6.023 16.368C6.006 16.325 5.888 16.300 5.709 16.300C5.468 16.300 5.418 16.283 5.394 16.192C5.368 16.094 5.320 16.084 4.901 16.084C4.901 16.084 4.436 16.084 4.436 16.084C4.436 16.084 4.436 15.710 4.436 15.710C4.436 15.710 4.098 15.694 4.098 15.694C3.761 15.678 3.759 15.677 3.743 15.506C3.743 15.506 3.726 15.335 3.726 15.335C3.726 15.335 3.310 15.316 3.310 15.316C3.081 15.305 2.865 15.317 2.829 15.343C2.716 15.424 2.651 15.328 2.651 15.080C2.651 15.080 2.651 14.839 2.651 14.839C2.651 14.839 2.394 14.839 2.394 14.839C1.958 14.837 1.893 14.802 1.893 14.565C1.893 14.565 1.893 14.357 1.893 14.357C1.893 14.357 2.678 14.325 2.678 14.325C2.678 14.325 2.668 14.153 2.668 14.153C2.657 13.943 2.659 13.942 3.678 13.945C3.678 13.945 4.409 13.947 4.409 13.947C4.409 13.947 4.425 14.150 4.425 14.150ZM19.149 14.005C19.149 14.053 19.178 14.081 19.214 14.070C19.314 14.036 19.331 13.920 19.235 13.920C19.188 13.920 19.149 13.958 19.149 14.005ZM18.663 14.031C18.663 14.063 18.687 14.073 18.717 14.055C18.746 14.037 18.771 14.011 18.771 13.998C18.771 13.985 18.746 13.974 18.717 13.974C18.687 13.974 18.663 14.000 18.663 14.031ZM22.990 14.052C22.990 14.065 22.966 14.091 22.936 14.109C22.906 14.127 22.882 14.117 22.882 14.085C22.882 14.054 22.906 14.028 22.936 14.028C22.966 14.028 22.990 14.039 22.990 14.052ZM23.531 14.052C23.531 14.065 23.507 14.091 23.477 14.109C23.447 14.127 23.423 14.117 23.423 14.085C23.423 14.054 23.447 14.028 23.477 14.028C23.507 14.028 23.531 14.039 23.531 14.052ZM2.813 14.271C2.813 14.321 2.839 14.353 2.871 14.342C2.903 14.331 2.929 14.300 2.929 14.271C2.929 14.243 2.903 14.211 2.871 14.201C2.839 14.190 2.813 14.222 2.813 14.271ZM0.649 14.298C0.649 14.328 0.623 14.353 0.592 14.353C0.560 14.353 0.550 14.328 0.568 14.298C0.586 14.269 0.612 14.244 0.625 14.244C0.638 14.244 0.649 14.269 0.649 14.298ZM1.190 14.298C1.190 14.328 1.166 14.353 1.136 14.353C1.106 14.353 1.082 14.328 1.082 14.298C1.082 14.269 1.106 14.244 1.136 14.244C1.166 14.244 1.190 14.269 1.190 14.298ZM23.774 14.353C23.793 14.382 23.782 14.407 23.751 14.407C23.719 14.407 23.693 14.382 23.693 14.353C23.693 14.323 23.704 14.298 23.717 14.298C23.730 14.298 23.756 14.323 23.774 14.353ZM18.122 14.461C18.122 14.490 18.146 14.515 18.176 14.515C18.205 14.515 18.230 14.490 18.230 14.461C18.230 14.431 18.205 14.407 18.176 14.407C18.146 14.407 18.122 14.431 18.122 14.461ZM18.621 14.471C18.654 14.571 18.771 14.588 18.771 14.492C18.771 14.445 18.732 14.407 18.685 14.407C18.638 14.407 18.609 14.436 18.621 14.471ZM21.557 14.839C21.575 14.869 21.564 14.893 21.533 14.893C21.501 14.893 21.475 14.869 21.475 14.839C21.475 14.810 21.486 14.785 21.499 14.785C21.512 14.785 21.538 14.810 21.557 14.839ZM22.125 14.839C22.125 14.869 22.099 14.893 22.067 14.893C22.036 14.893 22.025 14.869 22.043 14.839C22.062 14.810 22.088 14.785 22.101 14.785C22.114 14.785 22.125 14.810 22.125 14.839ZM22.666 14.839C22.666 14.869 22.640 14.893 22.608 14.893C22.577 14.893 22.566 14.869 22.584 14.839C22.603 14.810 22.629 14.785 22.642 14.785C22.655 14.785 22.666 14.810 22.666 14.839ZM23.234 14.839C23.252 14.869 23.228 14.893 23.179 14.893C23.131 14.893 23.107 14.869 23.125 14.839C23.144 14.810 23.168 14.785 23.179 14.785C23.191 14.785 23.215 14.810 23.234 14.839ZM17.020 14.877C16.959 14.938 16.983 15.002 17.067 15.002C17.111 15.002 17.148 14.979 17.148 14.951C17.148 14.883 17.063 14.834 17.020 14.877ZM17.554 14.893C17.509 14.965 17.574 15.066 17.639 15.026C17.704 14.986 17.704 14.839 17.638 14.839C17.610 14.839 17.572 14.864 17.554 14.893ZM18.077 14.930C18.103 15.065 18.230 15.084 18.230 14.952C18.230 14.886 18.195 14.839 18.145 14.839C18.094 14.839 18.067 14.876 18.077 14.930ZM2.272 15.326C2.272 15.356 2.261 15.380 2.248 15.380C2.235 15.380 2.209 15.356 2.191 15.326C2.172 15.296 2.183 15.272 2.215 15.272C2.246 15.272 2.272 15.296 2.272 15.326ZM17.498 15.329C17.447 15.411 17.585 15.560 17.650 15.494C17.711 15.434 17.664 15.272 17.586 15.272C17.557 15.272 17.517 15.298 17.498 15.329ZM4.111 15.380C4.111 15.410 4.137 15.434 4.168 15.434C4.200 15.434 4.211 15.410 4.192 15.380C4.174 15.351 4.148 15.326 4.135 15.326C4.122 15.326 4.111 15.351 4.111 15.380ZM10.386 15.407C10.386 15.452 10.423 15.489 10.467 15.489C10.512 15.489 10.548 15.452 10.548 15.407C10.548 15.363 10.512 15.326 10.467 15.326C10.423 15.326 10.386 15.363 10.386 15.407ZM10.927 15.411C10.927 15.457 10.951 15.480 10.981 15.461C11.011 15.443 11.035 15.405 11.035 15.377C11.035 15.349 11.011 15.326 10.981 15.326C10.951 15.326 10.927 15.364 10.927 15.411ZM16.524 15.383C16.473 15.466 16.543 15.520 16.613 15.450C16.651 15.412 16.652 15.381 16.615 15.359C16.585 15.340 16.544 15.351 16.524 15.383ZM16.995 15.410C17.020 15.528 17.116 15.535 17.138 15.421C17.149 15.362 17.123 15.326 17.067 15.326C17.015 15.326 16.985 15.361 16.995 15.410ZM21.557 15.380C21.575 15.410 21.564 15.434 21.533 15.434C21.501 15.434 21.475 15.410 21.475 15.380C21.475 15.351 21.486 15.326 21.499 15.326C21.512 15.326 21.538 15.351 21.557 15.380ZM22.125 15.380C22.125 15.410 22.100 15.434 22.071 15.434C22.041 15.434 22.016 15.410 22.016 15.380C22.016 15.351 22.041 15.326 22.071 15.326C22.100 15.326 22.125 15.351 22.125 15.380ZM22.666 15.380C22.666 15.410 22.641 15.434 22.611 15.434C22.582 15.434 22.557 15.410 22.557 15.380C22.557 15.351 22.582 15.326 22.611 15.326C22.641 15.326 22.666 15.351 22.666 15.380ZM4.608 15.871C4.619 15.903 4.651 15.929 4.679 15.929C4.707 15.929 4.739 15.903 4.750 15.871C4.761 15.839 4.729 15.813 4.679 15.813C4.630 15.813 4.598 15.839 4.608 15.871ZM5.114 15.863C5.077 15.923 5.163 15.988 5.213 15.938C5.264 15.886 5.254 15.813 5.196 15.813C5.168 15.813 5.131 15.836 5.114 15.863ZM10.885 15.876C10.913 15.960 11.034 15.974 11.038 15.894C11.040 15.864 11.000 15.832 10.951 15.821C10.894 15.810 10.870 15.830 10.885 15.876ZM11.424 15.871C11.435 15.903 11.467 15.929 11.495 15.929C11.523 15.929 11.555 15.903 11.566 15.871C11.576 15.839 11.545 15.813 11.495 15.813C11.445 15.813 11.414 15.839 11.424 15.871ZM11.955 15.894C11.955 15.944 11.981 15.976 12.013 15.965C12.045 15.954 12.071 15.922 12.071 15.894C12.071 15.866 12.045 15.834 12.013 15.823C11.981 15.813 11.955 15.845 11.955 15.894ZM15.471 15.894C15.471 15.939 15.495 15.975 15.525 15.975C15.555 15.975 15.579 15.939 15.579 15.894C15.579 15.850 15.555 15.813 15.525 15.813C15.495 15.813 15.471 15.850 15.471 15.894ZM15.994 15.849C15.932 15.911 15.954 15.975 16.039 15.975C16.084 15.975 16.120 15.939 16.120 15.894C16.120 15.810 16.056 15.787 15.994 15.849ZM16.469 15.872C16.449 15.904 16.454 15.952 16.480 15.978C16.544 16.042 16.684 15.949 16.638 15.873C16.591 15.797 16.516 15.796 16.469 15.872ZM22.666 15.921C22.666 15.951 22.655 15.975 22.642 15.975C22.629 15.975 22.603 15.951 22.584 15.921C22.566 15.892 22.577 15.867 22.608 15.867C22.640 15.867 22.666 15.892 22.666 15.921ZM23.207 15.921C23.207 15.951 23.196 15.975 23.183 15.975C23.170 15.975 23.144 15.951 23.125 15.921C23.107 15.892 23.118 15.867 23.149 15.867C23.181 15.867 23.207 15.892 23.207 15.921ZM11.925 16.305C11.869 16.395 11.995 16.498 12.069 16.424C12.132 16.361 12.093 16.246 12.009 16.246C11.983 16.246 11.945 16.272 11.925 16.305ZM12.442 16.300C12.378 16.339 12.375 16.363 12.429 16.417C12.481 16.469 12.510 16.469 12.561 16.419C12.602 16.378 12.607 16.335 12.574 16.302C12.542 16.270 12.491 16.270 12.442 16.300ZM12.963 16.283C12.898 16.348 12.928 16.462 13.010 16.462C13.054 16.462 13.091 16.427 13.091 16.384C13.091 16.294 13.014 16.233 12.963 16.283ZM13.415 16.381C13.415 16.426 13.452 16.462 13.497 16.462C13.541 16.462 13.578 16.426 13.578 16.381C13.578 16.336 13.541 16.300 13.497 16.300C13.452 16.300 13.415 16.336 13.415 16.381ZM13.932 16.350C13.892 16.415 13.993 16.479 14.065 16.435C14.126 16.397 14.086 16.300 14.010 16.300C13.984 16.300 13.949 16.323 13.932 16.350ZM14.443 16.381C14.443 16.426 14.480 16.462 14.524 16.462C14.569 16.462 14.605 16.426 14.605 16.381C14.605 16.336 14.569 16.300 14.524 16.300C14.480 16.300 14.443 16.336 14.443 16.381ZM14.930 16.381C14.930 16.437 14.965 16.463 15.025 16.452C15.139 16.430 15.132 16.334 15.014 16.310C14.965 16.299 14.930 16.329 14.930 16.381ZM18.040 16.408C18.059 16.438 18.048 16.462 18.017 16.462C17.985 16.462 17.959 16.438 17.959 16.408C17.959 16.378 17.970 16.354 17.983 16.354C17.996 16.354 18.022 16.378 18.040 16.408ZM19.717 16.408C19.736 16.438 19.725 16.462 19.694 16.462C19.662 16.462 19.636 16.438 19.636 16.408C19.636 16.378 19.647 16.354 19.660 16.354C19.673 16.354 19.699 16.378 19.717 16.408ZM20.394 16.441C20.394 16.453 20.357 16.462 20.312 16.462C20.268 16.462 20.231 16.439 20.231 16.410C20.231 16.381 20.268 16.371 20.312 16.389C20.357 16.406 20.394 16.429 20.394 16.441ZM21.313 16.702C21.313 16.716 21.289 16.741 21.259 16.760C21.229 16.778 21.205 16.767 21.205 16.736C21.205 16.704 21.229 16.679 21.259 16.679C21.289 16.679 21.313 16.689 21.313 16.702ZM21.854 16.733C21.854 16.762 21.843 16.787 21.830 16.787C21.817 16.787 21.791 16.762 21.773 16.733C21.755 16.703 21.765 16.679 21.797 16.679C21.828 16.679 21.854 16.703 21.854 16.733ZM18.608 16.949C18.608 16.979 18.583 17.003 18.551 17.003C18.520 17.003 18.509 16.979 18.527 16.949C18.546 16.919 18.571 16.895 18.585 16.895C18.598 16.895 18.608 16.919 18.608 16.949ZM20.962 16.949C20.980 16.979 20.969 17.003 20.938 17.003C20.906 17.003 20.880 16.979 20.880 16.949C20.880 16.919 20.891 16.895 20.904 16.895C20.917 16.895 20.943 16.919 20.962 16.949ZM22.098 16.949C22.116 16.979 22.105 17.003 22.074 17.003C22.042 17.003 22.016 16.979 22.016 16.949C22.016 16.919 22.027 16.895 22.040 16.895C22.053 16.895 22.079 16.919 22.098 16.949ZM21.530 17.003C21.530 17.033 21.519 17.057 21.506 17.057C21.493 17.057 21.467 17.033 21.448 17.003C21.430 16.973 21.441 16.949 21.472 16.949C21.504 16.949 21.530 16.973 21.530 17.003ZM22.666 17.003C22.666 17.033 22.655 17.057 22.642 17.057C22.629 17.057 22.603 17.033 22.584 17.003C22.566 16.973 22.577 16.949 22.608 16.949C22.640 16.949 22.666 16.973 22.666 17.003ZM23.207 17.003C23.207 17.033 23.196 17.057 23.183 17.057C23.170 17.057 23.144 17.033 23.125 17.003C23.107 16.973 23.118 16.949 23.149 16.949C23.181 16.949 23.207 16.973 23.207 17.003ZM24.018 17.274C24.018 17.303 23.992 17.328 23.961 17.328C23.929 17.328 23.918 17.303 23.937 17.274C23.955 17.244 23.981 17.220 23.994 17.220C24.007 17.220 24.018 17.244 24.018 17.274ZM24.532 17.274C24.550 17.303 24.539 17.328 24.508 17.328C24.476 17.328 24.451 17.303 24.451 17.274C24.451 17.244 24.461 17.220 24.475 17.220C24.488 17.220 24.513 17.244 24.532 17.274ZM25.046 17.328C25.046 17.357 25.035 17.382 25.022 17.382C25.009 17.382 24.983 17.357 24.965 17.328C24.946 17.298 24.957 17.274 24.988 17.274C25.020 17.274 25.046 17.298 25.046 17.328ZM6.572 17.436C6.591 17.466 6.580 17.490 6.549 17.490C6.517 17.490 6.491 17.466 6.491 17.436C6.491 17.406 6.502 17.382 6.515 17.382C6.528 17.382 6.554 17.406 6.572 17.436ZM7.627 17.460C7.627 17.473 7.603 17.499 7.573 17.517C7.543 17.535 7.519 17.525 7.519 17.493C7.519 17.462 7.543 17.436 7.573 17.436C7.603 17.436 7.627 17.447 7.627 17.460ZM20.310 17.549C20.292 17.577 20.255 17.586 20.227 17.568C20.199 17.551 20.190 17.514 20.207 17.485C20.225 17.457 20.262 17.448 20.290 17.466C20.318 17.483 20.327 17.521 20.310 17.549ZM20.935 17.490C20.935 17.520 20.910 17.544 20.880 17.544C20.851 17.544 20.826 17.520 20.826 17.490C20.826 17.460 20.851 17.436 20.880 17.436C20.910 17.436 20.935 17.460 20.935 17.490ZM18.608 17.544C18.608 17.574 18.598 17.598 18.585 17.598C18.571 17.598 18.546 17.574 18.527 17.544C18.509 17.514 18.520 17.490 18.551 17.490C18.583 17.490 18.608 17.514 18.608 17.544ZM19.149 17.544C19.149 17.574 19.139 17.598 19.126 17.598C19.112 17.598 19.087 17.574 19.068 17.544C19.050 17.514 19.061 17.490 19.092 17.490C19.124 17.490 19.149 17.514 19.149 17.544ZM22.125 17.514C22.125 17.527 22.100 17.553 22.071 17.571C22.041 17.590 22.016 17.579 22.016 17.547C22.016 17.516 22.041 17.490 22.071 17.490C22.100 17.490 22.125 17.501 22.125 17.514ZM22.666 17.544C22.666 17.574 22.641 17.598 22.611 17.598C22.582 17.598 22.557 17.574 22.557 17.544C22.557 17.514 22.582 17.490 22.611 17.490C22.641 17.490 22.666 17.514 22.666 17.544ZM23.207 17.544C23.207 17.574 23.182 17.598 23.152 17.598C23.123 17.598 23.098 17.574 23.098 17.544C23.098 17.514 23.123 17.490 23.152 17.490C23.182 17.490 23.207 17.514 23.207 17.544ZM23.720 17.544C23.739 17.574 23.728 17.598 23.697 17.598C23.665 17.598 23.639 17.574 23.639 17.544C23.639 17.514 23.650 17.490 23.663 17.490C23.676 17.490 23.702 17.514 23.720 17.544ZM17.527 18.055C17.527 18.068 17.502 18.094 17.472 18.112C17.443 18.130 17.418 18.120 17.418 18.088C17.418 18.057 17.443 18.031 17.472 18.031C17.502 18.031 17.527 18.042 17.527 18.055ZM18.068 18.085C18.068 18.115 18.043 18.139 18.013 18.139C17.984 18.139 17.959 18.115 17.959 18.085C17.959 18.055 17.984 18.031 18.013 18.031C18.043 18.031 18.068 18.055 18.068 18.085ZM18.608 18.085C18.608 18.115 18.598 18.139 18.585 18.139C18.571 18.139 18.546 18.115 18.527 18.085C18.509 18.055 18.520 18.031 18.551 18.031C18.583 18.031 18.608 18.055 18.608 18.085ZM19.149 18.085C19.149 18.115 19.139 18.139 19.126 18.139C19.112 18.139 19.087 18.115 19.068 18.085C19.050 18.055 19.061 18.031 19.092 18.031C19.124 18.031 19.149 18.055 19.149 18.085ZM19.690 18.085C19.690 18.115 19.680 18.139 19.667 18.139C19.653 18.139 19.628 18.115 19.609 18.085C19.591 18.055 19.602 18.031 19.633 18.031C19.665 18.031 19.690 18.055 19.690 18.085ZM20.935 18.085C20.935 18.115 20.924 18.139 20.911 18.139C20.898 18.139 20.872 18.115 20.853 18.085C20.835 18.055 20.846 18.031 20.877 18.031C20.909 18.031 20.935 18.055 20.935 18.085ZM21.530 18.085C21.530 18.115 21.505 18.139 21.475 18.139C21.446 18.139 21.421 18.115 21.421 18.085C21.421 18.055 21.446 18.031 21.475 18.031C21.505 18.031 21.530 18.055 21.530 18.085ZM22.666 18.085C22.666 18.115 22.641 18.139 22.611 18.139C22.582 18.139 22.557 18.115 22.557 18.085C22.557 18.055 22.582 18.031 22.611 18.031C22.641 18.031 22.666 18.055 22.666 18.085ZM23.207 18.085C23.207 18.115 23.182 18.139 23.152 18.139C23.123 18.139 23.098 18.115 23.098 18.085C23.098 18.055 23.123 18.031 23.152 18.031C23.182 18.031 23.207 18.055 23.207 18.085ZM23.720 18.085C23.739 18.115 23.728 18.139 23.697 18.139C23.665 18.139 23.639 18.115 23.639 18.085C23.639 18.055 23.650 18.031 23.663 18.031C23.676 18.031 23.702 18.055 23.720 18.085ZM25.181 18.085C25.199 18.115 25.189 18.139 25.157 18.139C25.126 18.139 25.100 18.115 25.100 18.085C25.100 18.055 25.111 18.031 25.124 18.031C25.137 18.031 25.163 18.055 25.181 18.085ZM18.068 18.626C18.068 18.656 18.057 18.680 18.044 18.680C18.031 18.680 18.005 18.656 17.986 18.626C17.968 18.596 17.979 18.572 18.010 18.572C18.042 18.572 18.068 18.596 18.068 18.626ZM18.608 18.626C18.608 18.656 18.598 18.680 18.585 18.680C18.571 18.680 18.546 18.656 18.527 18.626C18.509 18.596 18.520 18.572 18.551 18.572C18.583 18.572 18.608 18.596 18.608 18.626ZM19.149 18.626C19.149 18.656 19.139 18.680 19.126 18.680C19.112 18.680 19.087 18.656 19.068 18.626C19.050 18.596 19.061 18.572 19.092 18.572C19.124 18.572 19.149 18.596 19.149 18.626ZM20.935 18.626C20.935 18.656 20.910 18.680 20.880 18.680C20.851 18.680 20.826 18.656 20.826 18.626C20.826 18.596 20.851 18.572 20.880 18.572C20.910 18.572 20.935 18.596 20.935 18.626ZM21.530 18.626C21.530 18.656 21.505 18.680 21.475 18.680C21.446 18.680 21.421 18.656 21.421 18.626C21.421 18.596 21.446 18.572 21.475 18.572C21.505 18.572 21.530 18.596 21.530 18.626ZM22.639 18.626C22.657 18.656 22.646 18.680 22.615 18.680C22.583 18.680 22.557 18.656 22.557 18.626C22.557 18.596 22.568 18.572 22.581 18.572C22.594 18.572 22.620 18.596 22.639 18.626ZM23.207 18.626C23.207 18.656 23.182 18.680 23.152 18.680C23.123 18.680 23.098 18.656 23.098 18.626C23.098 18.596 23.123 18.572 23.152 18.572C23.182 18.572 23.207 18.596 23.207 18.626ZM23.720 18.626C23.739 18.656 23.728 18.680 23.697 18.680C23.665 18.680 23.639 18.656 23.639 18.626C23.639 18.596 23.650 18.572 23.663 18.572C23.676 18.572 23.702 18.596 23.720 18.626ZM20.015 18.896C20.015 18.926 19.989 18.951 19.958 18.951C19.926 18.951 19.915 18.926 19.934 18.896C19.952 18.867 19.978 18.842 19.991 18.842C20.004 18.842 20.015 18.867 20.015 18.896ZM20.610 18.896C20.610 18.926 20.586 18.951 20.556 18.951C20.526 18.951 20.502 18.926 20.502 18.896C20.502 18.867 20.526 18.842 20.556 18.842C20.586 18.842 20.610 18.867 20.610 18.896ZM11.170 19.519C11.170 19.519 12.306 19.573 12.306 19.573C12.306 19.573 12.334 19.789 12.334 19.789C12.356 19.965 12.380 20.002 12.464 19.987C12.521 19.978 12.652 19.985 12.754 20.005C12.933 20.038 12.940 20.048 12.911 20.228C12.888 20.369 12.902 20.425 12.964 20.449C13.010 20.466 13.066 20.452 13.088 20.416C13.117 20.369 13.145 20.374 13.197 20.436C13.242 20.490 13.358 20.519 13.530 20.519C13.530 20.519 13.794 20.519 13.794 20.519C13.794 20.519 13.794 21.060 13.794 21.060C13.794 21.060 14.281 21.060 14.281 21.060C14.281 21.060 14.281 21.547 14.281 21.547C14.281 21.547 14.762 21.547 14.762 21.547C14.762 21.547 14.795 22.061 14.795 22.061C14.795 22.061 15.055 22.078 15.055 22.078C15.286 22.092 15.315 22.108 15.306 22.213C15.279 22.554 15.293 22.575 15.557 22.575C15.557 22.575 15.805 22.575 15.805 22.575C15.805 22.575 15.769 23.035 15.769 23.035C15.769 23.035 16.282 23.068 16.282 23.068C16.282 23.068 16.282 24.526 16.282 24.526C16.282 24.526 14.998 24.502 14.998 24.502C14.291 24.488 12.782 24.475 11.644 24.473C11.644 24.473 9.575 24.468 9.575 24.468C9.575 24.468 9.575 23.981 9.575 23.981C9.575 23.981 8.831 23.975 8.831 23.975C8.422 23.972 7.953 23.966 7.790 23.962C7.790 23.962 7.492 23.954 7.492 23.954C7.492 23.954 7.459 23.554 7.459 23.554C7.459 23.554 6.843 23.522 6.843 23.522C6.843 23.522 6.809 23.116 6.809 23.116C6.809 23.116 5.831 23.116 5.831 23.116C5.831 23.116 5.872 22.683 5.872 22.683C5.872 22.683 5.300 22.683 5.300 22.683C5.300 22.683 5.333 22.475 5.333 22.475C5.359 22.312 5.347 22.259 5.280 22.233C5.171 22.191 5.031 22.242 5.029 22.324C5.028 22.358 4.993 22.325 4.952 22.250C4.911 22.176 4.890 22.051 4.905 21.972C4.938 21.806 4.809 21.736 4.576 21.794C4.576 21.794 4.436 21.829 4.436 21.829C4.436 21.829 4.436 20.519 4.436 20.519C4.436 20.519 4.977 20.519 4.977 20.519C4.977 20.519 4.977 20.278 4.977 20.278C4.977 20.079 4.992 20.042 5.063 20.069C5.119 20.090 5.140 20.146 5.124 20.229C5.091 20.403 5.220 20.509 5.295 20.369C5.334 20.296 5.332 20.247 5.288 20.203C5.184 20.099 5.323 20.017 5.651 19.990C5.651 19.990 5.950 19.965 5.950 19.965C5.950 19.965 5.950 19.755 5.950 19.755C5.950 19.521 5.895 19.539 6.640 19.525C7.001 19.518 7.016 19.502 6.981 19.155C6.973 19.071 7.055 19.060 7.827 19.047C8.297 19.038 9.248 19.039 9.940 19.047C9.940 19.047 11.198 19.063 11.198 19.063C11.198 19.063 11.170 19.519 11.170 19.519ZM18.068 19.137C18.068 19.150 18.043 19.176 18.013 19.194C17.984 19.212 17.959 19.202 17.959 19.170C17.959 19.139 17.984 19.113 18.013 19.113C18.043 19.113 18.068 19.124 18.068 19.137ZM18.608 19.167C18.608 19.197 18.584 19.221 18.554 19.221C18.525 19.221 18.500 19.197 18.500 19.167C18.500 19.137 18.525 19.113 18.554 19.113C18.584 19.113 18.608 19.137 18.608 19.167ZM20.935 19.167C20.935 19.197 20.910 19.221 20.880 19.221C20.851 19.221 20.826 19.197 20.826 19.167C20.826 19.137 20.851 19.113 20.880 19.113C20.910 19.113 20.935 19.137 20.935 19.167ZM21.530 19.167C21.530 19.197 21.504 19.221 21.472 19.221C21.441 19.221 21.430 19.197 21.448 19.167C21.467 19.137 21.493 19.113 21.506 19.113C21.519 19.113 21.530 19.137 21.530 19.167ZM22.639 19.167C22.657 19.197 22.646 19.221 22.615 19.221C22.583 19.221 22.557 19.197 22.557 19.167C22.557 19.137 22.568 19.113 22.581 19.113C22.594 19.113 22.620 19.137 22.639 19.167ZM23.207 19.167C23.207 19.197 23.182 19.221 23.152 19.221C23.123 19.221 23.098 19.197 23.098 19.167C23.098 19.137 23.123 19.113 23.152 19.113C23.182 19.113 23.207 19.137 23.207 19.167ZM23.747 19.167C23.747 19.197 23.723 19.221 23.693 19.221C23.664 19.221 23.639 19.197 23.639 19.167C23.639 19.137 23.664 19.113 23.693 19.113C23.723 19.113 23.747 19.137 23.747 19.167ZM24.694 19.221C24.712 19.251 24.702 19.275 24.670 19.275C24.639 19.275 24.613 19.251 24.613 19.221C24.613 19.191 24.624 19.167 24.637 19.167C24.650 19.167 24.676 19.191 24.694 19.221ZM7.168 19.275C7.123 19.347 7.188 19.448 7.252 19.408C7.318 19.367 7.318 19.221 7.252 19.221C7.224 19.221 7.186 19.245 7.168 19.275ZM7.690 19.299C7.700 19.348 7.733 19.388 7.763 19.386C7.843 19.382 7.828 19.261 7.744 19.233C7.698 19.218 7.678 19.242 7.690 19.299ZM8.231 19.299C8.241 19.348 8.274 19.388 8.303 19.386C8.384 19.382 8.369 19.261 8.285 19.233C8.239 19.218 8.219 19.242 8.231 19.299ZM8.774 19.269C8.718 19.303 8.720 19.325 8.783 19.377C8.841 19.426 8.872 19.427 8.900 19.381C8.952 19.297 8.860 19.215 8.774 19.269ZM9.273 19.281C9.227 19.357 9.368 19.450 9.432 19.386C9.484 19.334 9.434 19.221 9.358 19.221C9.332 19.221 9.294 19.248 9.273 19.281ZM9.816 19.279C9.766 19.359 9.824 19.403 9.927 19.363C9.975 19.345 9.999 19.305 9.981 19.276C9.937 19.205 9.861 19.206 9.816 19.279ZM10.356 19.280C10.300 19.370 10.426 19.473 10.500 19.399C10.563 19.336 10.524 19.221 10.440 19.221C10.414 19.221 10.376 19.247 10.356 19.280ZM10.855 19.298C10.839 19.340 10.858 19.387 10.898 19.402C10.983 19.435 11.035 19.394 11.035 19.293C11.035 19.197 10.892 19.201 10.855 19.298ZM18.068 19.708C18.068 19.738 18.043 19.762 18.013 19.762C17.984 19.762 17.959 19.738 17.959 19.708C17.959 19.678 17.984 19.654 18.013 19.654C18.043 19.654 18.068 19.678 18.068 19.708ZM18.608 19.708C18.608 19.738 18.598 19.762 18.585 19.762C18.571 19.762 18.546 19.738 18.527 19.708C18.509 19.678 18.520 19.654 18.551 19.654C18.583 19.654 18.608 19.678 18.608 19.708ZM20.935 19.708C20.935 19.738 20.910 19.762 20.880 19.762C20.851 19.762 20.826 19.738 20.826 19.708C20.826 19.678 20.851 19.654 20.880 19.654C20.910 19.654 20.935 19.678 20.935 19.708ZM21.530 19.708C21.530 19.738 21.504 19.762 21.472 19.762C21.441 19.762 21.430 19.738 21.448 19.708C21.467 19.678 21.493 19.654 21.506 19.654C21.519 19.654 21.530 19.678 21.530 19.708ZM22.098 19.708C22.116 19.738 22.105 19.762 22.074 19.762C22.042 19.762 22.016 19.738 22.016 19.708C22.016 19.678 22.027 19.654 22.040 19.654C22.053 19.654 22.079 19.678 22.098 19.708ZM22.639 19.708C22.657 19.738 22.646 19.762 22.615 19.762C22.583 19.762 22.557 19.738 22.557 19.708C22.557 19.678 22.568 19.654 22.581 19.654C22.594 19.654 22.620 19.678 22.639 19.708ZM23.207 19.708C23.207 19.738 23.182 19.762 23.152 19.762C23.123 19.762 23.098 19.738 23.098 19.708C23.098 19.678 23.123 19.654 23.152 19.654C23.182 19.654 23.207 19.678 23.207 19.708ZM23.747 19.708C23.747 19.738 23.723 19.762 23.693 19.762C23.664 19.762 23.639 19.738 23.639 19.708C23.639 19.678 23.664 19.654 23.693 19.654C23.723 19.654 23.747 19.678 23.747 19.708ZM6.113 19.786C6.113 19.829 6.134 19.877 6.161 19.893C6.220 19.930 6.341 19.792 6.293 19.743C6.228 19.679 6.113 19.706 6.113 19.786ZM6.660 19.782C6.611 19.840 6.610 19.870 6.656 19.899C6.744 19.953 6.853 19.832 6.781 19.760C6.742 19.721 6.705 19.727 6.660 19.782ZM7.168 19.762C7.146 19.797 7.153 19.850 7.182 19.880C7.218 19.916 7.250 19.913 7.276 19.870C7.297 19.835 7.291 19.782 7.261 19.753C7.225 19.716 7.194 19.720 7.168 19.762ZM7.708 19.762C7.687 19.797 7.694 19.850 7.723 19.880C7.759 19.916 7.790 19.913 7.817 19.870C7.838 19.835 7.832 19.782 7.802 19.753C7.766 19.716 7.735 19.720 7.708 19.762ZM10.359 19.762C10.337 19.797 10.344 19.850 10.374 19.880C10.410 19.916 10.441 19.913 10.467 19.870C10.489 19.835 10.482 19.782 10.452 19.753C10.416 19.716 10.385 19.720 10.359 19.762ZM10.873 19.816C10.873 19.886 10.900 19.924 10.941 19.911C10.978 19.898 11.008 19.856 11.008 19.816C11.008 19.776 10.978 19.734 10.941 19.721C10.900 19.708 10.873 19.746 10.873 19.816ZM11.382 19.769C11.336 19.844 11.442 19.947 11.517 19.900C11.550 19.880 11.576 19.843 11.576 19.819C11.576 19.747 11.421 19.707 11.382 19.769ZM11.907 19.781C11.842 19.860 11.879 19.924 11.991 19.924C12.071 19.924 12.090 19.785 12.015 19.739C11.989 19.722 11.940 19.741 11.907 19.781ZM8.222 19.816C8.222 19.846 8.260 19.870 8.307 19.870C8.353 19.870 8.376 19.846 8.358 19.816C8.339 19.786 8.301 19.762 8.273 19.762C8.245 19.762 8.222 19.786 8.222 19.816ZM8.763 19.816C8.763 19.846 8.788 19.870 8.817 19.870C8.847 19.870 8.871 19.846 8.871 19.816C8.871 19.786 8.847 19.762 8.817 19.762C8.788 19.762 8.763 19.786 8.763 19.816ZM9.304 19.816C9.304 19.846 9.329 19.870 9.358 19.870C9.388 19.870 9.412 19.846 9.412 19.816C9.412 19.786 9.388 19.762 9.358 19.762C9.329 19.762 9.304 19.786 9.304 19.816ZM9.791 19.816C9.791 19.846 9.828 19.870 9.872 19.870C9.917 19.870 9.953 19.846 9.953 19.816C9.953 19.786 9.917 19.762 9.872 19.762C9.828 19.762 9.791 19.786 9.791 19.816ZM13.199 20.171C13.199 20.217 13.175 20.240 13.145 20.222C13.115 20.203 13.091 20.165 13.091 20.137C13.091 20.109 13.115 20.087 13.145 20.087C13.175 20.087 13.199 20.125 13.199 20.171ZM18.068 20.219C18.068 20.232 18.043 20.257 18.013 20.276C17.984 20.294 17.959 20.283 17.959 20.252C17.959 20.221 17.984 20.195 18.013 20.195C18.043 20.195 18.068 20.205 18.068 20.219ZM18.608 20.249C18.608 20.279 18.598 20.303 18.585 20.303C18.571 20.303 18.546 20.279 18.527 20.249C18.509 20.219 18.520 20.195 18.551 20.195C18.583 20.195 18.608 20.219 18.608 20.249ZM19.149 20.249C19.149 20.279 19.139 20.303 19.126 20.303C19.112 20.303 19.087 20.279 19.068 20.249C19.050 20.219 19.061 20.195 19.092 20.195C19.124 20.195 19.149 20.219 19.149 20.249ZM20.907 20.249C20.926 20.279 20.915 20.303 20.884 20.303C20.852 20.303 20.826 20.279 20.826 20.249C20.826 20.219 20.837 20.195 20.850 20.195C20.863 20.195 20.889 20.219 20.907 20.249ZM21.530 20.249C21.530 20.279 21.504 20.303 21.472 20.303C21.441 20.303 21.430 20.279 21.448 20.249C21.467 20.219 21.493 20.195 21.506 20.195C21.519 20.195 21.530 20.219 21.530 20.249ZM22.098 20.249C22.116 20.279 22.105 20.303 22.074 20.303C22.042 20.303 22.016 20.279 22.016 20.249C22.016 20.219 22.027 20.195 22.040 20.195C22.053 20.195 22.079 20.219 22.098 20.249ZM22.666 20.249C22.666 20.279 22.641 20.303 22.611 20.303C22.582 20.303 22.557 20.279 22.557 20.249C22.557 20.219 22.582 20.195 22.611 20.195C22.641 20.195 22.666 20.219 22.666 20.249ZM23.207 20.249C23.207 20.279 23.182 20.303 23.152 20.303C23.123 20.303 23.098 20.279 23.098 20.249C23.098 20.219 23.123 20.195 23.152 20.195C23.182 20.195 23.207 20.219 23.207 20.249ZM25.073 20.249C25.091 20.279 25.080 20.303 25.049 20.303C25.017 20.303 24.992 20.279 24.992 20.249C24.992 20.219 25.002 20.195 25.015 20.195C25.029 20.195 25.054 20.219 25.073 20.249ZM5.626 20.330C5.626 20.375 5.662 20.411 5.707 20.411C5.752 20.411 5.788 20.375 5.788 20.330C5.788 20.285 5.752 20.249 5.707 20.249C5.662 20.249 5.626 20.285 5.626 20.330ZM6.125 20.313C6.158 20.413 6.275 20.430 6.275 20.334C6.275 20.287 6.236 20.249 6.189 20.249C6.142 20.249 6.113 20.278 6.125 20.313ZM6.654 20.330C6.654 20.380 6.680 20.411 6.712 20.401C6.744 20.390 6.770 20.358 6.770 20.330C6.770 20.302 6.744 20.270 6.712 20.259C6.680 20.249 6.654 20.280 6.654 20.330ZM7.170 20.299C7.133 20.359 7.218 20.424 7.268 20.374C7.320 20.322 7.310 20.249 7.252 20.249C7.224 20.249 7.187 20.271 7.170 20.299ZM7.681 20.300C7.681 20.328 7.706 20.366 7.736 20.384C7.765 20.402 7.790 20.380 7.790 20.333C7.790 20.287 7.765 20.249 7.736 20.249C7.706 20.249 7.681 20.272 7.681 20.300ZM10.359 20.303C10.341 20.333 10.351 20.357 10.383 20.357C10.414 20.357 10.440 20.333 10.440 20.303C10.440 20.273 10.430 20.249 10.416 20.249C10.403 20.249 10.377 20.273 10.359 20.303ZM10.905 20.296C10.881 20.333 10.877 20.379 10.895 20.397C10.943 20.445 10.996 20.374 10.970 20.295C10.951 20.240 10.939 20.240 10.905 20.296ZM11.397 20.283C11.354 20.327 11.403 20.411 11.471 20.411C11.499 20.411 11.522 20.375 11.522 20.330C11.522 20.246 11.458 20.222 11.397 20.283ZM11.901 20.330C11.901 20.375 11.937 20.411 11.982 20.411C12.027 20.411 12.063 20.375 12.063 20.330C12.063 20.285 12.027 20.249 11.982 20.249C11.937 20.249 11.901 20.285 11.901 20.330ZM12.388 20.330C12.388 20.375 12.424 20.411 12.469 20.411C12.513 20.411 12.550 20.375 12.550 20.330C12.550 20.285 12.513 20.249 12.469 20.249C12.424 20.249 12.388 20.285 12.388 20.330ZM8.222 20.360C8.222 20.392 8.247 20.402 8.276 20.384C8.306 20.366 8.331 20.340 8.331 20.327C8.331 20.314 8.306 20.303 8.276 20.303C8.247 20.303 8.222 20.329 8.222 20.360ZM9.845 20.360C9.845 20.392 9.870 20.402 9.899 20.384C9.929 20.366 9.953 20.340 9.953 20.327C9.953 20.314 9.929 20.303 9.899 20.303C9.870 20.303 9.845 20.329 9.845 20.360ZM4.652 20.844C4.652 20.914 4.679 20.952 4.720 20.939C4.757 20.926 4.787 20.884 4.787 20.844C4.787 20.804 4.757 20.762 4.720 20.749C4.679 20.736 4.652 20.774 4.652 20.844ZM5.147 20.813C5.158 20.863 5.190 20.902 5.220 20.901C5.300 20.897 5.286 20.776 5.201 20.747C5.156 20.732 5.136 20.757 5.147 20.813ZM5.660 20.773C5.599 20.834 5.623 20.898 5.707 20.898C5.752 20.898 5.788 20.875 5.788 20.847C5.788 20.779 5.704 20.730 5.660 20.773ZM6.147 20.773C6.086 20.834 6.110 20.898 6.194 20.898C6.238 20.898 6.275 20.875 6.275 20.847C6.275 20.779 6.190 20.730 6.147 20.773ZM12.901 20.790C12.883 20.820 12.907 20.860 12.955 20.878C13.058 20.918 13.116 20.874 13.066 20.793C13.021 20.721 12.945 20.719 12.901 20.790ZM13.442 20.790C13.421 20.825 13.428 20.878 13.457 20.907C13.493 20.943 13.524 20.940 13.551 20.898C13.572 20.863 13.566 20.810 13.536 20.780C13.500 20.744 13.469 20.747 13.442 20.790ZM18.608 20.790C18.608 20.820 18.598 20.844 18.585 20.844C18.571 20.844 18.546 20.820 18.527 20.790C18.509 20.760 18.520 20.736 18.551 20.736C18.583 20.736 18.608 20.760 18.608 20.790ZM19.149 20.790C19.149 20.820 19.139 20.844 19.126 20.844C19.112 20.844 19.087 20.820 19.068 20.790C19.050 20.760 19.061 20.736 19.092 20.736C19.124 20.736 19.149 20.760 19.149 20.790ZM21.530 20.790C21.530 20.820 21.505 20.844 21.475 20.844C21.446 20.844 21.421 20.820 21.421 20.790C21.421 20.760 21.446 20.736 21.475 20.736C21.505 20.736 21.530 20.760 21.530 20.790ZM22.125 20.790C22.125 20.820 22.100 20.844 22.071 20.844C22.041 20.844 22.016 20.820 22.016 20.790C22.016 20.760 22.041 20.736 22.071 20.736C22.100 20.736 22.125 20.760 22.125 20.790ZM22.666 20.790C22.666 20.820 22.641 20.844 22.611 20.844C22.582 20.844 22.557 20.820 22.557 20.790C22.557 20.760 22.582 20.736 22.611 20.736C22.641 20.736 22.666 20.760 22.666 20.790ZM23.207 20.790C23.207 20.820 23.196 20.844 23.183 20.844C23.170 20.844 23.144 20.820 23.125 20.790C23.107 20.760 23.118 20.736 23.149 20.736C23.181 20.736 23.207 20.760 23.207 20.790ZM23.774 20.790C23.793 20.820 23.782 20.844 23.751 20.844C23.719 20.844 23.693 20.820 23.693 20.790C23.693 20.760 23.704 20.736 23.717 20.736C23.730 20.736 23.756 20.760 23.774 20.790ZM25.100 20.790C25.100 20.820 25.089 20.844 25.076 20.844C25.063 20.844 25.037 20.820 25.019 20.790C25.000 20.760 25.011 20.736 25.043 20.736C25.074 20.736 25.100 20.760 25.100 20.790ZM6.654 20.844C6.654 20.874 6.678 20.898 6.708 20.898C6.737 20.898 6.762 20.874 6.762 20.844C6.762 20.814 6.737 20.790 6.708 20.790C6.678 20.790 6.654 20.814 6.654 20.844ZM7.140 20.844C7.140 20.874 7.163 20.898 7.191 20.898C7.219 20.898 7.257 20.874 7.276 20.844C7.294 20.814 7.271 20.790 7.225 20.790C7.178 20.790 7.140 20.814 7.140 20.844ZM7.708 20.844C7.690 20.874 7.701 20.898 7.732 20.898C7.764 20.898 7.790 20.874 7.790 20.844C7.790 20.814 7.779 20.790 7.766 20.790C7.753 20.790 7.727 20.814 7.708 20.844ZM8.222 20.844C8.222 20.874 8.247 20.898 8.276 20.898C8.306 20.898 8.331 20.874 8.331 20.844C8.331 20.814 8.306 20.790 8.276 20.790C8.247 20.790 8.222 20.814 8.222 20.844ZM8.763 20.844C8.763 20.874 8.788 20.898 8.817 20.898C8.847 20.898 8.871 20.874 8.871 20.844C8.871 20.814 8.847 20.790 8.817 20.790C8.788 20.790 8.763 20.814 8.763 20.844ZM9.304 20.844C9.304 20.874 9.329 20.898 9.358 20.898C9.388 20.898 9.412 20.874 9.412 20.844C9.412 20.814 9.388 20.790 9.358 20.790C9.329 20.790 9.304 20.814 9.304 20.844ZM11.414 20.847C11.414 20.879 11.438 20.889 11.468 20.871C11.498 20.853 11.522 20.827 11.522 20.814C11.522 20.800 11.498 20.790 11.468 20.790C11.438 20.790 11.414 20.816 11.414 20.847ZM11.928 20.844C11.946 20.874 11.972 20.898 11.985 20.898C11.998 20.898 12.009 20.874 12.009 20.844C12.009 20.814 11.983 20.790 11.952 20.790C11.920 20.790 11.909 20.814 11.928 20.844ZM12.388 20.844C12.388 20.874 12.424 20.898 12.469 20.898C12.513 20.898 12.550 20.874 12.550 20.844C12.550 20.814 12.513 20.790 12.469 20.790C12.424 20.790 12.388 20.814 12.388 20.844ZM21.259 21.060C21.259 21.090 21.233 21.114 21.202 21.114C21.170 21.114 21.160 21.090 21.178 21.060C21.196 21.030 21.222 21.006 21.235 21.006C21.248 21.006 21.259 21.030 21.259 21.060ZM21.854 21.060C21.854 21.090 21.828 21.114 21.797 21.114C21.765 21.114 21.755 21.090 21.773 21.060C21.791 21.030 21.817 21.006 21.830 21.006C21.843 21.006 21.854 21.030 21.854 21.060ZM3.570 21.277C3.570 21.306 3.546 21.331 3.516 21.331C3.486 21.331 3.462 21.306 3.462 21.277C3.462 21.247 3.486 21.223 3.516 21.223C3.546 21.223 3.570 21.247 3.570 21.277ZM4.674 21.297C4.628 21.416 4.689 21.477 4.772 21.395C4.821 21.346 4.821 21.316 4.773 21.268C4.725 21.219 4.701 21.226 4.674 21.297ZM5.139 21.362C5.139 21.458 5.255 21.441 5.289 21.341C5.301 21.306 5.272 21.277 5.225 21.277C5.178 21.277 5.139 21.315 5.139 21.362ZM5.626 21.331C5.626 21.360 5.662 21.385 5.707 21.385C5.752 21.385 5.788 21.360 5.788 21.331C5.788 21.301 5.752 21.277 5.707 21.277C5.662 21.277 5.626 21.301 5.626 21.331ZM6.113 21.331C6.113 21.360 6.149 21.385 6.194 21.385C6.238 21.385 6.275 21.360 6.275 21.331C6.275 21.301 6.238 21.277 6.194 21.277C6.149 21.277 6.113 21.301 6.113 21.331ZM6.654 21.331C6.654 21.360 6.678 21.385 6.708 21.385C6.737 21.385 6.762 21.360 6.762 21.331C6.762 21.301 6.737 21.277 6.708 21.277C6.678 21.277 6.654 21.301 6.654 21.331ZM7.681 21.331C7.681 21.360 7.706 21.385 7.736 21.385C7.765 21.385 7.790 21.360 7.790 21.331C7.790 21.301 7.765 21.277 7.736 21.277C7.706 21.277 7.681 21.301 7.681 21.331ZM8.222 21.334C8.222 21.365 8.247 21.376 8.276 21.358C8.306 21.339 8.331 21.314 8.331 21.300C8.331 21.287 8.306 21.277 8.276 21.277C8.247 21.277 8.222 21.302 8.222 21.334ZM9.304 21.334C9.304 21.365 9.329 21.376 9.358 21.358C9.388 21.339 9.412 21.314 9.412 21.300C9.412 21.287 9.388 21.277 9.358 21.277C9.329 21.277 9.304 21.302 9.304 21.334ZM10.359 21.331C10.377 21.360 10.403 21.385 10.416 21.385C10.430 21.385 10.440 21.360 10.440 21.331C10.440 21.301 10.414 21.277 10.383 21.277C10.351 21.277 10.341 21.301 10.359 21.331ZM11.414 21.334C11.414 21.365 11.438 21.376 11.468 21.358C11.498 21.339 11.522 21.314 11.522 21.300C11.522 21.287 11.498 21.277 11.468 21.277C11.438 21.277 11.414 21.302 11.414 21.334ZM12.415 21.332C12.434 21.362 12.472 21.373 12.500 21.355C12.575 21.309 12.561 21.277 12.466 21.277C12.419 21.277 12.397 21.301 12.415 21.332ZM12.929 21.331C12.929 21.360 12.953 21.385 12.983 21.385C13.012 21.385 13.037 21.360 13.037 21.331C13.037 21.301 13.012 21.277 12.983 21.277C12.953 21.277 12.929 21.301 12.929 21.331ZM13.415 21.331C13.415 21.360 13.452 21.385 13.497 21.385C13.541 21.385 13.578 21.360 13.578 21.331C13.578 21.301 13.541 21.277 13.497 21.277C13.452 21.277 13.415 21.301 13.415 21.331ZM13.913 21.335C13.923 21.367 13.955 21.393 13.983 21.393C14.012 21.393 14.044 21.367 14.054 21.335C14.065 21.303 14.033 21.277 13.983 21.277C13.934 21.277 13.902 21.303 13.913 21.335ZM20.935 21.331C20.935 21.360 20.910 21.385 20.880 21.385C20.851 21.385 20.826 21.360 20.826 21.331C20.826 21.301 20.851 21.277 20.880 21.277C20.910 21.277 20.935 21.301 20.935 21.331ZM21.530 21.331C21.530 21.360 21.519 21.385 21.506 21.385C21.493 21.385 21.467 21.360 21.448 21.331C21.430 21.301 21.441 21.277 21.472 21.277C21.504 21.277 21.530 21.301 21.530 21.331ZM22.125 21.300C22.125 21.314 22.100 21.339 22.071 21.358C22.041 21.376 22.016 21.365 22.016 21.334C22.016 21.302 22.041 21.277 22.071 21.277C22.100 21.277 22.125 21.287 22.125 21.300ZM23.207 21.331C23.207 21.360 23.196 21.385 23.183 21.385C23.170 21.385 23.144 21.360 23.125 21.331C23.107 21.301 23.118 21.277 23.149 21.277C23.181 21.277 23.207 21.301 23.207 21.331ZM24.613 21.300C24.613 21.314 24.589 21.339 24.559 21.358C24.529 21.376 24.505 21.365 24.505 21.334C24.505 21.302 24.529 21.277 24.559 21.277C24.589 21.277 24.613 21.287 24.613 21.300ZM5.139 21.849C5.139 21.945 5.255 21.928 5.289 21.828C5.301 21.792 5.272 21.763 5.225 21.763C5.178 21.763 5.139 21.802 5.139 21.849ZM5.626 21.818C5.626 21.847 5.662 21.872 5.707 21.872C5.752 21.872 5.788 21.847 5.788 21.818C5.788 21.788 5.752 21.763 5.707 21.763C5.662 21.763 5.626 21.788 5.626 21.818ZM6.113 21.818C6.113 21.847 6.149 21.872 6.194 21.872C6.238 21.872 6.275 21.847 6.275 21.818C6.275 21.788 6.238 21.763 6.194 21.763C6.149 21.763 6.113 21.788 6.113 21.818ZM6.627 21.818C6.608 21.847 6.631 21.872 6.677 21.872C6.724 21.872 6.762 21.847 6.762 21.818C6.762 21.788 6.739 21.763 6.711 21.763C6.683 21.763 6.645 21.788 6.627 21.818ZM7.168 21.818C7.186 21.847 7.212 21.872 7.225 21.872C7.238 21.872 7.249 21.847 7.249 21.818C7.249 21.788 7.223 21.763 7.191 21.763C7.160 21.763 7.149 21.788 7.168 21.818ZM7.681 21.818C7.681 21.847 7.706 21.872 7.736 21.872C7.765 21.872 7.790 21.847 7.790 21.818C7.790 21.788 7.765 21.763 7.736 21.763C7.706 21.763 7.681 21.788 7.681 21.818ZM8.763 21.821C8.763 21.852 8.788 21.863 8.817 21.845C8.847 21.826 8.871 21.800 8.871 21.787C8.871 21.774 8.847 21.763 8.817 21.763C8.788 21.763 8.763 21.789 8.763 21.821ZM9.304 21.818C9.304 21.847 9.329 21.872 9.358 21.872C9.388 21.872 9.412 21.847 9.412 21.818C9.412 21.788 9.388 21.763 9.358 21.763C9.329 21.763 9.304 21.788 9.304 21.818ZM11.414 21.821C11.414 21.852 11.438 21.863 11.468 21.845C11.498 21.826 11.522 21.800 11.522 21.787C11.522 21.774 11.498 21.763 11.468 21.763C11.438 21.763 11.414 21.789 11.414 21.821ZM11.928 21.818C11.946 21.847 11.972 21.872 11.985 21.872C11.998 21.872 12.009 21.847 12.009 21.818C12.009 21.788 11.983 21.763 11.952 21.763C11.920 21.763 11.909 21.788 11.928 21.818ZM12.415 21.818C12.434 21.849 12.472 21.859 12.500 21.842C12.575 21.796 12.561 21.763 12.466 21.763C12.419 21.763 12.397 21.788 12.415 21.818ZM12.929 21.818C12.929 21.847 12.953 21.872 12.983 21.872C13.012 21.872 13.037 21.847 13.037 21.818C13.037 21.788 13.012 21.763 12.983 21.763C12.953 21.763 12.929 21.788 12.929 21.818ZM13.415 21.818C13.415 21.847 13.440 21.872 13.470 21.872C13.499 21.872 13.524 21.847 13.524 21.818C13.524 21.788 13.499 21.763 13.470 21.763C13.440 21.763 13.415 21.788 13.415 21.818ZM13.913 21.822C13.923 21.854 13.955 21.880 13.983 21.880C14.012 21.880 14.044 21.854 14.054 21.822C14.065 21.790 14.033 21.763 13.983 21.763C13.934 21.763 13.902 21.790 13.913 21.822ZM14.427 21.798C14.383 21.841 14.432 21.926 14.500 21.926C14.529 21.926 14.551 21.889 14.551 21.845C14.551 21.761 14.488 21.737 14.427 21.798ZM18.068 21.818C18.068 21.847 18.043 21.872 18.013 21.872C17.984 21.872 17.959 21.847 17.959 21.818C17.959 21.788 17.984 21.763 18.013 21.763C18.043 21.763 18.068 21.788 18.068 21.818ZM18.608 21.818C18.608 21.847 18.584 21.872 18.554 21.872C18.525 21.872 18.500 21.847 18.500 21.818C18.500 21.788 18.525 21.763 18.554 21.763C18.584 21.763 18.608 21.788 18.608 21.818ZM21.530 21.818C21.530 21.847 21.504 21.872 21.472 21.872C21.441 21.872 21.430 21.847 21.448 21.818C21.467 21.788 21.493 21.763 21.506 21.763C21.519 21.763 21.530 21.788 21.530 21.818ZM5.648 22.271C5.602 22.390 5.663 22.451 5.746 22.368C5.795 22.320 5.795 22.289 5.747 22.241C5.698 22.193 5.675 22.200 5.648 22.271ZM6.140 22.250C6.118 22.285 6.125 22.338 6.155 22.368C6.191 22.404 6.222 22.401 6.248 22.359C6.269 22.324 6.263 22.271 6.233 22.241C6.197 22.205 6.166 22.208 6.140 22.250ZM6.654 22.304C6.654 22.334 6.678 22.359 6.708 22.359C6.737 22.359 6.762 22.334 6.762 22.304C6.762 22.275 6.737 22.250 6.708 22.250C6.678 22.250 6.654 22.275 6.654 22.304ZM7.140 22.304C7.140 22.334 7.165 22.359 7.195 22.359C7.224 22.359 7.249 22.334 7.249 22.304C7.249 22.275 7.224 22.250 7.195 22.250C7.165 22.250 7.140 22.275 7.140 22.304ZM7.681 22.304C7.681 22.334 7.706 22.359 7.736 22.359C7.765 22.359 7.790 22.334 7.790 22.304C7.790 22.275 7.765 22.250 7.736 22.250C7.706 22.250 7.681 22.275 7.681 22.304ZM8.196 22.305C8.215 22.336 8.252 22.346 8.280 22.329C8.355 22.283 8.341 22.250 8.246 22.250C8.200 22.250 8.177 22.275 8.196 22.305ZM9.278 22.305C9.296 22.336 9.334 22.346 9.362 22.329C9.437 22.283 9.423 22.250 9.328 22.250C9.282 22.250 9.259 22.275 9.278 22.305ZM9.818 22.304C9.837 22.334 9.862 22.359 9.875 22.359C9.889 22.359 9.899 22.334 9.899 22.304C9.899 22.275 9.873 22.250 9.842 22.250C9.811 22.250 9.800 22.275 9.818 22.304ZM10.386 22.308C10.386 22.339 10.410 22.350 10.440 22.331C10.470 22.313 10.494 22.287 10.494 22.274C10.494 22.261 10.470 22.250 10.440 22.250C10.410 22.250 10.386 22.276 10.386 22.308ZM10.900 22.304C10.918 22.334 10.944 22.359 10.957 22.359C10.970 22.359 10.981 22.334 10.981 22.304C10.981 22.275 10.955 22.250 10.924 22.250C10.892 22.250 10.882 22.275 10.900 22.304ZM11.414 22.308C11.414 22.339 11.438 22.350 11.468 22.331C11.498 22.313 11.522 22.287 11.522 22.274C11.522 22.261 11.498 22.250 11.468 22.250C11.438 22.250 11.414 22.276 11.414 22.308ZM11.901 22.304C11.901 22.334 11.925 22.359 11.955 22.359C11.985 22.359 12.009 22.334 12.009 22.304C12.009 22.275 11.985 22.250 11.955 22.250C11.925 22.250 11.901 22.275 11.901 22.304ZM12.415 22.305C12.434 22.336 12.472 22.346 12.500 22.329C12.575 22.283 12.561 22.250 12.466 22.250C12.419 22.250 12.397 22.275 12.415 22.305ZM12.929 22.304C12.929 22.334 12.953 22.359 12.983 22.359C13.012 22.359 13.037 22.334 13.037 22.304C13.037 22.275 13.012 22.250 12.983 22.250C12.953 22.250 12.929 22.275 12.929 22.304ZM13.415 22.304C13.415 22.334 13.440 22.359 13.470 22.359C13.499 22.359 13.524 22.334 13.524 22.304C13.524 22.275 13.499 22.250 13.470 22.250C13.440 22.250 13.415 22.275 13.415 22.304ZM13.932 22.300C13.915 22.328 13.924 22.365 13.952 22.383C13.980 22.400 14.017 22.391 14.035 22.363C14.052 22.335 14.043 22.298 14.015 22.280C13.987 22.263 13.950 22.272 13.932 22.300ZM14.427 22.285C14.383 22.328 14.432 22.413 14.500 22.413C14.529 22.413 14.551 22.376 14.551 22.331C14.551 22.248 14.488 22.224 14.427 22.285ZM14.930 22.359C14.930 22.388 14.954 22.413 14.984 22.413C15.014 22.413 15.038 22.388 15.038 22.359C15.038 22.329 15.014 22.304 14.984 22.304C14.954 22.304 14.930 22.329 14.930 22.359ZM22.125 22.359C22.125 22.388 22.099 22.413 22.067 22.413C22.036 22.413 22.025 22.388 22.043 22.359C22.062 22.329 22.088 22.304 22.101 22.304C22.114 22.304 22.125 22.329 22.125 22.359ZM6.140 22.737C6.118 22.772 6.125 22.825 6.155 22.855C6.191 22.891 6.222 22.888 6.248 22.845C6.269 22.810 6.263 22.758 6.233 22.728C6.197 22.692 6.166 22.695 6.140 22.737ZM6.636 22.719C6.573 22.781 6.596 22.845 6.681 22.845C6.725 22.845 6.762 22.809 6.762 22.764C6.762 22.680 6.698 22.657 6.636 22.719ZM7.140 22.791C7.140 22.821 7.163 22.845 7.191 22.845C7.219 22.845 7.257 22.821 7.276 22.791C7.294 22.762 7.271 22.737 7.225 22.737C7.178 22.737 7.140 22.762 7.140 22.791ZM7.681 22.791C7.681 22.821 7.706 22.845 7.736 22.845C7.765 22.845 7.790 22.821 7.790 22.791C7.790 22.762 7.765 22.737 7.736 22.737C7.706 22.737 7.681 22.762 7.681 22.791ZM8.168 22.791C8.168 22.821 8.191 22.845 8.219 22.845C8.247 22.845 8.285 22.821 8.303 22.791C8.322 22.762 8.299 22.737 8.253 22.737C8.206 22.737 8.168 22.762 8.168 22.791ZM8.709 22.791C8.709 22.821 8.734 22.845 8.763 22.845C8.793 22.845 8.817 22.821 8.817 22.791C8.817 22.762 8.793 22.737 8.763 22.737C8.734 22.737 8.709 22.762 8.709 22.791ZM9.278 22.792C9.296 22.822 9.334 22.833 9.362 22.816C9.437 22.770 9.423 22.737 9.328 22.737C9.282 22.737 9.259 22.762 9.278 22.792ZM9.818 22.791C9.837 22.821 9.862 22.845 9.875 22.845C9.889 22.845 9.899 22.821 9.899 22.791C9.899 22.762 9.873 22.737 9.842 22.737C9.811 22.737 9.800 22.762 9.818 22.791ZM10.359 22.791C10.377 22.821 10.403 22.845 10.416 22.845C10.430 22.845 10.440 22.821 10.440 22.791C10.440 22.762 10.414 22.737 10.383 22.737C10.351 22.737 10.341 22.762 10.359 22.791ZM10.873 22.791C10.873 22.821 10.897 22.845 10.927 22.845C10.957 22.845 10.981 22.821 10.981 22.791C10.981 22.762 10.957 22.737 10.927 22.737C10.897 22.737 10.873 22.762 10.873 22.791ZM11.414 22.794C11.414 22.826 11.438 22.837 11.468 22.818C11.498 22.800 11.522 22.774 11.522 22.761C11.522 22.748 11.498 22.737 11.468 22.737C11.438 22.737 11.414 22.763 11.414 22.794ZM11.901 22.791C11.901 22.821 11.925 22.845 11.955 22.845C11.985 22.845 12.009 22.821 12.009 22.791C12.009 22.762 11.985 22.737 11.955 22.737C11.925 22.737 11.901 22.762 11.901 22.791ZM12.388 22.791C12.388 22.821 12.411 22.845 12.439 22.845C12.467 22.845 12.504 22.821 12.523 22.791C12.541 22.762 12.518 22.737 12.472 22.737C12.426 22.737 12.388 22.762 12.388 22.791ZM12.929 22.791C12.929 22.821 12.953 22.845 12.983 22.845C13.012 22.845 13.037 22.821 13.037 22.791C13.037 22.762 13.012 22.737 12.983 22.737C12.953 22.737 12.929 22.762 12.929 22.791ZM13.415 22.791C13.415 22.821 13.440 22.845 13.470 22.845C13.499 22.845 13.524 22.821 13.524 22.791C13.524 22.762 13.499 22.737 13.470 22.737C13.440 22.737 13.415 22.762 13.415 22.791ZM13.910 22.789C13.934 22.858 14.008 22.871 14.015 22.806C14.017 22.785 13.989 22.757 13.954 22.745C13.918 22.733 13.898 22.753 13.910 22.789ZM14.419 22.787C14.402 22.815 14.410 22.852 14.439 22.870C14.467 22.887 14.504 22.878 14.521 22.850C14.539 22.822 14.530 22.784 14.502 22.767C14.474 22.750 14.436 22.758 14.419 22.787ZM14.905 22.788C14.865 22.852 14.967 22.916 15.039 22.872C15.100 22.834 15.060 22.737 14.984 22.737C14.958 22.737 14.922 22.760 14.905 22.788ZM15.451 22.775C15.391 22.836 15.414 22.899 15.498 22.899C15.543 22.899 15.579 22.877 15.579 22.849C15.579 22.780 15.495 22.731 15.451 22.775ZM22.503 22.791C22.503 22.821 22.479 22.845 22.449 22.845C22.419 22.845 22.395 22.821 22.395 22.791C22.395 22.762 22.419 22.737 22.449 22.737C22.479 22.737 22.503 22.762 22.503 22.791ZM22.179 23.062C22.179 23.091 22.168 23.116 22.155 23.116C22.142 23.116 22.116 23.091 22.098 23.062C22.079 23.032 22.090 23.008 22.121 23.008C22.153 23.008 22.179 23.032 22.179 23.062ZM7.116 23.220C7.076 23.285 7.177 23.349 7.250 23.305C7.310 23.267 7.270 23.170 7.195 23.170C7.168 23.170 7.133 23.193 7.116 23.220ZM7.627 23.247C7.627 23.294 7.666 23.332 7.713 23.332C7.808 23.332 7.792 23.216 7.692 23.182C7.656 23.171 7.627 23.199 7.627 23.247ZM8.198 23.219C8.181 23.248 8.190 23.285 8.218 23.302C8.246 23.320 8.283 23.311 8.301 23.283C8.318 23.255 8.309 23.217 8.281 23.200C8.253 23.182 8.216 23.191 8.198 23.219ZM8.739 23.220C8.721 23.248 8.732 23.286 8.762 23.305C8.793 23.323 8.817 23.301 8.817 23.254C8.817 23.159 8.785 23.145 8.739 23.220ZM9.280 23.220C9.262 23.248 9.273 23.286 9.303 23.305C9.334 23.323 9.358 23.301 9.358 23.254C9.358 23.159 9.326 23.145 9.280 23.220ZM9.818 23.224C9.800 23.254 9.811 23.278 9.842 23.278C9.873 23.278 9.899 23.254 9.899 23.224C9.899 23.194 9.889 23.170 9.875 23.170C9.862 23.170 9.837 23.194 9.818 23.224ZM11.390 23.219C11.372 23.248 11.381 23.285 11.409 23.302C11.438 23.320 11.475 23.311 11.492 23.283C11.510 23.255 11.501 23.217 11.473 23.200C11.444 23.182 11.407 23.191 11.390 23.219ZM11.901 23.248C11.901 23.294 11.925 23.332 11.955 23.332C11.985 23.332 12.009 23.309 12.009 23.281C12.009 23.253 11.985 23.215 11.955 23.197C11.925 23.179 11.901 23.202 11.901 23.248ZM12.418 23.219C12.400 23.248 12.409 23.285 12.437 23.302C12.465 23.320 12.503 23.311 12.520 23.283C12.537 23.255 12.529 23.217 12.500 23.200C12.472 23.182 12.435 23.191 12.418 23.219ZM12.904 23.219C12.887 23.248 12.896 23.285 12.924 23.302C12.952 23.320 12.989 23.311 13.007 23.283C13.024 23.255 13.015 23.217 12.987 23.200C12.959 23.182 12.922 23.191 12.904 23.219ZM6.545 23.278C6.545 23.308 6.535 23.332 6.522 23.332C6.508 23.332 6.483 23.308 6.464 23.278C6.446 23.248 6.457 23.224 6.488 23.224C6.520 23.224 6.545 23.248 6.545 23.278ZM10.359 23.278C10.377 23.308 10.403 23.332 10.416 23.332C10.430 23.332 10.440 23.308 10.440 23.278C10.440 23.248 10.414 23.224 10.383 23.224C10.351 23.224 10.341 23.248 10.359 23.278ZM10.900 23.278C10.918 23.308 10.944 23.332 10.957 23.332C10.970 23.332 10.981 23.308 10.981 23.278C10.981 23.248 10.955 23.224 10.924 23.224C10.892 23.224 10.882 23.248 10.900 23.278ZM13.415 23.278C13.415 23.308 13.440 23.332 13.470 23.332C13.499 23.332 13.524 23.308 13.524 23.278C13.524 23.248 13.499 23.224 13.470 23.224C13.440 23.224 13.415 23.248 13.415 23.278ZM13.902 23.278C13.902 23.308 13.927 23.332 13.956 23.332C13.986 23.332 14.010 23.308 14.010 23.278C14.010 23.248 13.986 23.224 13.956 23.224C13.927 23.224 13.902 23.248 13.902 23.278ZM14.443 23.278C14.443 23.308 14.468 23.332 14.497 23.332C14.527 23.332 14.551 23.308 14.551 23.278C14.551 23.248 14.527 23.224 14.497 23.224C14.468 23.224 14.443 23.248 14.443 23.278ZM14.930 23.278C14.930 23.308 14.954 23.332 14.984 23.332C15.014 23.332 15.038 23.308 15.038 23.278C15.038 23.248 15.014 23.224 14.984 23.224C14.954 23.224 14.930 23.248 14.930 23.278ZM15.417 23.278C15.417 23.308 15.453 23.332 15.498 23.332C15.543 23.332 15.579 23.308 15.579 23.278C15.579 23.248 15.543 23.224 15.498 23.224C15.453 23.224 15.417 23.248 15.417 23.278ZM15.958 23.305C15.958 23.355 15.984 23.387 16.016 23.376C16.048 23.365 16.074 23.333 16.074 23.305C16.074 23.277 16.048 23.245 16.016 23.234C15.984 23.224 15.958 23.256 15.958 23.305ZM20.826 23.278C20.826 23.308 20.802 23.332 20.772 23.332C20.743 23.332 20.718 23.308 20.718 23.278C20.718 23.248 20.743 23.224 20.772 23.224C20.802 23.224 20.826 23.248 20.826 23.278ZM22.449 23.278C22.449 23.308 22.425 23.332 22.395 23.332C22.365 23.332 22.341 23.308 22.341 23.278C22.341 23.248 22.365 23.224 22.395 23.224C22.425 23.224 22.449 23.248 22.449 23.278ZM7.636 23.687C7.646 23.740 7.687 23.794 7.727 23.807C7.774 23.823 7.793 23.797 7.781 23.735C7.771 23.682 7.730 23.628 7.690 23.614C7.643 23.599 7.624 23.625 7.636 23.687ZM8.137 23.663C8.091 23.738 8.232 23.831 8.296 23.767C8.348 23.715 8.298 23.603 8.222 23.603C8.196 23.603 8.158 23.630 8.137 23.663ZM8.691 23.639C8.629 23.701 8.652 23.765 8.736 23.765C8.781 23.765 8.817 23.728 8.817 23.684C8.817 23.599 8.753 23.576 8.691 23.639ZM9.250 23.711C9.250 23.741 9.274 23.765 9.304 23.765C9.334 23.765 9.358 23.741 9.358 23.711C9.358 23.681 9.334 23.657 9.304 23.657C9.274 23.657 9.250 23.681 9.250 23.711ZM9.791 23.711C9.791 23.741 9.815 23.765 9.845 23.765C9.875 23.765 9.899 23.741 9.899 23.711C9.899 23.681 9.875 23.657 9.845 23.657C9.815 23.657 9.791 23.681 9.791 23.711ZM10.332 23.711C10.332 23.741 10.356 23.765 10.386 23.765C10.416 23.765 10.440 23.741 10.440 23.711C10.440 23.681 10.416 23.657 10.386 23.657C10.356 23.657 10.332 23.681 10.332 23.711ZM10.873 23.711C10.873 23.741 10.897 23.765 10.927 23.765C10.957 23.765 10.981 23.741 10.981 23.711C10.981 23.681 10.957 23.657 10.927 23.657C10.897 23.657 10.873 23.681 10.873 23.711ZM11.901 23.711C11.901 23.741 11.925 23.765 11.955 23.765C11.985 23.765 12.009 23.741 12.009 23.711C12.009 23.681 11.985 23.657 11.955 23.657C11.925 23.657 11.901 23.681 11.901 23.711ZM12.388 23.711C12.388 23.741 12.412 23.765 12.442 23.765C12.471 23.765 12.496 23.741 12.496 23.711C12.496 23.681 12.471 23.657 12.442 23.657C12.412 23.657 12.388 23.681 12.388 23.711ZM12.929 23.711C12.929 23.741 12.953 23.765 12.983 23.765C13.012 23.765 13.037 23.741 13.037 23.711C13.037 23.681 13.012 23.657 12.983 23.657C12.953 23.657 12.929 23.681 12.929 23.711ZM13.415 23.711C13.415 23.741 13.440 23.765 13.470 23.765C13.499 23.765 13.524 23.741 13.524 23.711C13.524 23.681 13.499 23.657 13.470 23.657C13.440 23.657 13.415 23.681 13.415 23.711ZM13.929 23.711C13.911 23.741 13.922 23.765 13.953 23.765C13.985 23.765 14.010 23.741 14.010 23.711C14.010 23.681 14.000 23.657 13.987 23.657C13.973 23.657 13.948 23.681 13.929 23.711ZM14.419 23.706C14.402 23.734 14.410 23.772 14.439 23.789C14.467 23.807 14.504 23.798 14.521 23.770C14.539 23.741 14.530 23.704 14.502 23.687C14.474 23.669 14.436 23.678 14.419 23.706ZM14.905 23.707C14.868 23.767 14.954 23.831 15.004 23.782C15.055 23.730 15.045 23.657 14.987 23.657C14.959 23.657 14.922 23.679 14.905 23.707ZM15.447 23.706C15.429 23.734 15.438 23.772 15.466 23.789C15.495 23.807 15.532 23.798 15.549 23.770C15.567 23.741 15.558 23.704 15.530 23.687C15.502 23.669 15.464 23.678 15.447 23.706ZM15.941 23.691C15.898 23.735 15.947 23.819 16.015 23.819C16.043 23.819 16.066 23.783 16.066 23.738C16.066 23.654 16.002 23.630 15.941 23.691ZM20.285 23.765C20.285 23.795 20.260 23.819 20.228 23.819C20.197 23.819 20.186 23.795 20.204 23.765C20.223 23.735 20.248 23.711 20.262 23.711C20.275 23.711 20.285 23.735 20.285 23.765ZM21.367 23.765C21.367 23.795 21.341 23.819 21.310 23.819C21.279 23.819 21.268 23.795 21.286 23.765C21.305 23.735 21.330 23.711 21.343 23.711C21.357 23.711 21.367 23.735 21.367 23.765ZM9.771 24.118C9.737 24.206 9.819 24.274 9.899 24.225C9.977 24.177 9.966 24.106 9.877 24.072C9.835 24.056 9.787 24.076 9.771 24.118ZM10.307 24.140C10.290 24.168 10.301 24.206 10.331 24.224C10.396 24.264 10.494 24.213 10.494 24.140C10.494 24.075 10.348 24.074 10.307 24.140ZM10.831 24.154C10.865 24.254 10.981 24.271 10.981 24.175C10.981 24.128 10.943 24.090 10.896 24.090C10.848 24.090 10.819 24.118 10.831 24.154ZM11.360 24.171C11.360 24.215 11.396 24.252 11.441 24.252C11.486 24.252 11.522 24.215 11.522 24.171C11.522 24.126 11.486 24.090 11.441 24.090C11.396 24.090 11.360 24.126 11.360 24.171ZM11.858 24.152C11.887 24.236 12.008 24.251 12.012 24.171C12.013 24.141 11.974 24.108 11.924 24.098C11.868 24.086 11.843 24.106 11.858 24.152ZM12.371 24.124C12.321 24.175 12.382 24.252 12.472 24.252C12.515 24.252 12.550 24.215 12.550 24.171C12.550 24.089 12.436 24.059 12.371 24.124ZM12.874 24.171C12.874 24.215 12.911 24.252 12.956 24.252C13.000 24.252 13.037 24.215 13.037 24.171C13.037 24.126 13.000 24.090 12.956 24.090C12.911 24.090 12.874 24.126 12.874 24.171ZM13.386 24.147C13.336 24.228 13.394 24.272 13.498 24.232C13.545 24.214 13.569 24.174 13.551 24.144C13.507 24.073 13.431 24.075 13.386 24.147ZM13.902 24.166C13.902 24.213 13.941 24.252 13.988 24.252C14.083 24.252 14.067 24.135 13.967 24.102C13.931 24.090 13.902 24.119 13.902 24.166ZM14.399 24.174C14.423 24.291 14.519 24.298 14.541 24.184C14.552 24.125 14.526 24.090 14.470 24.090C14.418 24.090 14.388 24.125 14.399 24.174ZM14.903 24.144C14.845 24.238 14.931 24.318 15.015 24.248C15.057 24.214 15.078 24.164 15.062 24.138C15.022 24.074 14.944 24.077 14.903 24.144ZM15.425 24.167C15.436 24.217 15.468 24.256 15.498 24.255C15.578 24.250 15.564 24.129 15.479 24.101C15.434 24.086 15.414 24.111 15.425 24.167ZM15.931 24.144C15.891 24.207 15.943 24.306 16.015 24.306C16.043 24.306 16.066 24.257 16.066 24.198C16.066 24.084 15.987 24.052 15.931 24.144ZM18.608 24.252C18.608 24.282 18.584 24.306 18.554 24.306C18.525 24.306 18.500 24.282 18.500 24.252C18.500 24.222 18.525 24.198 18.554 24.198C18.584 24.198 18.608 24.222 18.608 24.252ZM17.554 24.685C17.572 24.714 17.561 24.739 17.530 24.739C17.498 24.739 17.472 24.714 17.472 24.685C17.472 24.655 17.483 24.630 17.496 24.630C17.509 24.630 17.535 24.655 17.554 24.685Z" fill-rule="evenodd" fill="#0A0A0A" />
      </g>
      <path transform="matrix(1 0 0 1 35 7)" d="M11.03 3.818L11.879 3.818L11.879 3.394L12.303 3.394L12.303 2.97L15.273 2.97L15.273 3.394L16.121 3.394L16.121 3.818L16.546 3.818L16.546 4.667L16.97 4.667L16.97 5.939L17.394 5.939L17.394 8.909L16.97 8.909L16.97 10.182L16.546 10.182L16.546 10.606L16.121 10.606L16.121 11.03L15.697 11.03L15.697 11.454L14.849 11.454L14.849 11.879L12.727 11.879L12.727 11.454L11.879 11.454L11.879 11.03L11.454 11.03L11.454 14L9.333 14L9.333 2.97L11.03 2.97L11.03 3.818ZM20.363 3.818L20.788 3.818L20.788 3.394L21.212 3.394L21.212 2.97L24.606 2.97L24.606 3.394L25.03 3.394L25.03 3.818L25.454 3.818L25.454 4.667L25.879 4.667L25.879 5.516L26.303 5.516L26.303 8.909L25.879 8.909L25.879 10.182L25.454 10.182L25.454 10.606L25.03 10.606L25.03 11.03L24.606 11.03L24.606 11.454L23.758 11.454L23.758 11.879L21.637 11.879L21.637 11.454L20.788 11.454L20.788 11.03L20.363 11.03L20.363 14L18.242 14L18.242 2.97L20.363 2.97L20.363 3.818ZM56 4.242L56.424 4.242L56.424 5.516L56.849 5.516L56.849 6.788L57.273 6.788L57.273 7.637L57.697 7.637L57.697 8.909L58.121 8.909L58.121 8.484L58.546 8.484L58.546 7.212L58.97 7.212L58.97 5.939L59.394 5.939L59.394 4.242L59.818 4.242L59.818 2.97L61.94 2.97L61.94 4.242L61.516 4.242L61.516 5.516L61.091 5.516L61.091 6.788L60.667 6.788L60.667 7.637L60.242 7.637L60.242 8.909L59.818 8.909L59.818 10.182L59.394 10.182L59.394 11.454L58.97 11.454L58.97 12.727L58.546 12.727L58.546 13.151L58.121 13.151L58.121 13.576L57.697 13.576L57.697 14L55.151 14L55.151 12.303L56.849 12.303L56.849 11.879L57.273 11.879L57.273 11.03L56.424 11.03L56.424 9.758L56 9.758L56 8.484L55.576 8.484L55.576 7.637L55.151 7.637L55.151 6.363L54.727 6.363L54.727 5.091L54.303 5.091L54.303 4.242L53.879 4.242L53.879 2.97L56 2.97L56 4.242ZM5.939 3.394L6.363 3.394L6.363 3.818L6.788 3.818L6.788 4.242L7.212 4.242L7.212 6.363L7.637 6.363L7.637 10.182L8.484 10.182L8.484 11.454L8.061 11.454L8.061 11.879L6.788 11.879L6.788 11.454L5.939 11.454L5.939 10.606L5.516 10.606L5.516 11.03L5.091 11.03L5.091 11.454L4.242 11.454L4.242 11.879L1.697 11.879L1.697 11.454L0.849 11.454L0.849 11.03L0.424 11.03L0.424 10.182L0 10.182L0 8.909L0.424 8.909L0.424 8.061L0.849 8.061L0.849 7.637L1.272 7.637L1.272 7.212L2.121 7.212L2.121 6.788L3.818 6.788L3.818 6.363L5.516 6.363L5.516 5.091L5.091 5.091L5.091 4.667L4.242 4.667L4.242 4.242L3.818 4.242L3.818 4.667L2.546 4.667L2.546 5.516L0.424 5.516L0.424 4.667L0.849 4.667L0.849 3.818L1.272 3.818L1.272 3.394L2.121 3.394L2.121 2.97L5.939 2.97L5.939 3.394ZM33.091 3.394L33.516 3.394L33.516 3.818L33.94 3.818L33.94 4.242L34.363 4.242L34.363 5.091L34.788 5.091L34.788 6.363L35.212 6.363L35.212 8.061L29.273 8.061L29.273 9.333L29.697 9.333L29.697 9.758L30.546 9.758L30.546 10.182L31.818 10.182L31.818 9.758L32.667 9.758L32.667 8.909L34.788 8.909L34.788 9.758L34.363 9.758L34.363 10.606L33.94 10.606L33.94 11.03L33.516 11.03L33.516 11.454L32.667 11.454L32.667 11.879L29.697 11.879L29.697 11.454L28.849 11.454L28.849 11.03L28.424 11.03L28.424 10.606L28 10.606L28 10.182L27.576 10.182L27.576 9.333L27.151 9.333L27.151 5.516L27.576 5.516L27.576 4.667L28 4.667L28 3.818L28.849 3.818L28.849 3.394L29.273 3.394L29.273 2.97L33.091 2.97L33.091 3.394ZM42 3.394L42.424 3.394L42.424 3.818L42.849 3.818L42.849 4.242L43.273 4.242L43.273 4.667L43.697 4.667L43.697 5.939L44.121 5.939L44.121 8.061L38.182 8.061L38.182 8.909L38.606 8.909L38.606 9.758L39.454 9.758L39.454 10.182L40.727 10.182L40.727 9.758L41.576 9.758L41.576 8.909L43.697 8.909L43.697 10.182L43.273 10.182L43.273 10.606L42.849 10.606L42.849 11.03L42.424 11.03L42.424 11.454L41.576 11.454L41.576 11.879L38.606 11.879L38.606 11.454L37.758 11.454L37.758 11.03L37.333 11.03L37.333 10.606L36.909 10.606L36.909 10.182L36.484 10.182L36.484 8.909L36.06 8.909L36.06 5.516L36.484 5.516L36.484 4.667L36.909 4.667L36.909 4.242L37.333 4.242L37.333 3.818L37.758 3.818L37.758 3.394L38.182 3.394L38.182 2.97L42 2.97L42 3.394ZM47.091 6.788L47.516 6.788L47.516 6.363L47.94 6.363L47.94 5.939L48.363 5.939L48.363 5.516L48.788 5.516L48.788 5.091L49.212 5.091L49.212 4.242L49.637 4.242L49.637 3.818L50.06 3.818L50.06 3.394L50.484 3.394L50.484 2.97L53.03 2.97L53.03 3.394L52.606 3.394L52.606 3.818L52.182 3.818L52.182 4.242L51.758 4.242L51.758 4.667L51.333 4.667L51.333 5.091L50.909 5.091L50.909 5.516L50.484 5.516L50.484 6.363L50.06 6.363L50.06 7.212L50.484 7.212L50.484 8.061L50.909 8.061L50.909 8.484L51.333 8.484L51.333 9.333L51.758 9.333L51.758 9.758L52.182 9.758L52.182 10.606L52.606 10.606L52.606 11.03L53.03 11.03L53.03 11.454L50.909 11.454L50.909 11.03L50.484 11.03L50.484 10.606L50.06 10.606L50.06 10.182L49.637 10.182L49.637 9.333L49.212 9.333L49.212 8.909L48.788 8.909L48.788 8.061L48.363 8.061L48.363 8.484L47.94 8.484L47.94 8.909L47.516 8.909L47.516 9.333L47.091 9.333L47.091 11.454L45.394 11.454L45.394 0L47.091 0L47.091 6.788ZM5.091 8.061L2.97 8.061L2.97 8.484L2.546 8.484L2.546 8.909L2.121 8.909L2.121 9.758L2.546 9.758L2.546 10.182L4.667 10.182L4.667 9.758L5.091 9.758L5.091 9.333L5.516 9.333L5.516 7.637L5.091 7.637L5.091 8.061ZM12.303 5.091L11.879 5.091L11.879 5.516L11.454 5.516L11.454 8.909L11.879 8.909L11.879 9.758L12.727 9.758L12.727 10.182L14 10.182L14 9.758L14.849 9.758L14.849 8.909L15.273 8.909L15.273 5.939L14.849 5.939L14.849 5.091L14.424 5.091L14.424 4.667L12.303 4.667L12.303 5.091ZM21.212 5.091L20.788 5.091L20.788 5.516L20.363 5.516L20.363 8.909L20.788 8.909L20.788 9.758L21.637 9.758L21.637 10.182L22.909 10.182L22.909 9.758L23.758 9.758L23.758 8.909L24.182 8.909L24.182 5.516L23.758 5.516L23.758 5.091L23.333 5.091L23.333 4.667L21.212 4.667L21.212 5.091ZM30.121 5.091L29.697 5.091L29.697 5.516L29.273 5.516L29.273 6.363L33.091 6.363L33.091 5.939L32.667 5.939L32.667 5.091L32.242 5.091L32.242 4.667L30.121 4.667L30.121 5.091ZM39.03 5.091L38.606 5.091L38.606 5.516L38.182 5.516L38.182 6.363L42 6.363L42 5.939L41.576 5.939L41.576 5.091L41.151 5.091L41.151 4.667L39.03 4.667L39.03 5.091Z" fill-rule="nonzero" fill="#0A0A0A" />
    </svg>
